<svg xmlns="http://www.w3.org/2000/svg" viewBox="0 0 1080 1080"><g id="Layer_2" data-name="Layer 2"><g id="OBJECTS"><rect width="1080" height="1080" fill="#031519"/><g opacity="0.15"><path d="M444.34,892.65C432.16,875,400.13,867,375.53,867a99.48,99.48,0,0,0-20.9,2c-23.14,5-42.89,9.46-60.3,13.42-46.65,10.59-74.8,17-98.21,17-19.48,0-36.18-4.35-59.57-15.52-24.41-11.66-42.32-22.75-56.71-31.67C57.26,838.28,42.35,829,21.94,829A87.1,87.1,0,0,0,0,832.17v1.73a86.16,86.16,0,0,1,21.94-3.18c19.93,0,34.69,9.14,57,23,14.43,8.93,32.39,20.06,56.88,31.76,23.63,11.28,40.53,15.68,60.29,15.68,23.59,0,51.82-6.41,98.58-17,17.41-4,37.15-8.43,60.28-13.41a98.23,98.23,0,0,1,20.55-2c24.18,0,55.59,7.8,67.43,24.92,5.22,7.55,6.07,16.13,2.53,25.5-7.06,18.72-40.07,35.25-69.18,49.83-17.61,8.82-34.23,17.14-42.78,24.87-25,22.59-19,53.2-8.85,86.2h1.76c-10.07-32.66-16.14-62.93,8.22-85,8.37-7.58,24.9-15.85,42.4-24.62,29.39-14.72,62.71-31.4,70-50.73C450.81,909.78,449.89,900.68,444.34,892.65Z" fill="#5d5d5d"/><path d="M7.62,700.56c3.41-74,50.6-128,88.52-171.35l2.69-3.08c4.4-4.63,14.55-17,13.75-32-.48-9.11-5-17.35-13.4-24.5-5-4.28-9.7-8.28-14.14-12.09-19.61-16.84-35.11-30.14-59.16-46.82Q12.7,401.62,0,393.47v.85c8.31,5.34,16.83,11,25.47,17,24,16.66,39.5,30,59.1,46.77,4.44,3.81,9.1,7.82,14.14,12.1,8.26,7,12.68,15.08,13.15,24,.79,14.68-9.21,26.88-13.56,31.45l-2.7,3.09c-38,43.44-85.27,97.51-88.7,171.79-.36,7.91-3.44,12.75-6.9,14.39v.86C3.74,714.24,7.22,709.34,7.62,700.56Z" fill="#5d5d5d"/><path d="M428,1005a16.51,16.51,0,0,0-12.19-4.77c-15.08,0-33.95,14.92-40.25,21.72-23.2,25.08-25.86,39.12-21.22,58h1.25c-4.6-18.65-2-32.48,20.85-57.19,6.18-6.69,24.68-21.34,39.37-21.34a15.34,15.34,0,0,1,11.34,4.42c5,5,7.51,14.35,7.45,27.71-.07,16.23-2.86,31.21-6.41,46.4h1.24c3.53-15.17,6.29-30.14,6.37-46.4C435.86,1019.91,433.24,1010.3,428,1005Z" fill="#5d5d5d"/><path d="M24.4,701.34c3.15-68.16,48.19-119.68,84.39-161.07l2.71-3.09a281.5,281.5,0,0,0,18.3-22.91c5.63-8.06,16.11-23-8.64-46.95a689.55,689.55,0,0,0-85.71-70.38C23.15,388.41,11.3,380.72,0,373.81v.84q16.76,10.26,35,22.88a688.14,688.14,0,0,1,85.62,70.31c24.31,23.47,14.06,38.14,8.55,46A278.23,278.23,0,0,1,111,536.7l-2.7,3.1C72,581.27,26.84,632.89,23.68,701.3,22.22,733,16.59,751.5,6,759.41A12.37,12.37,0,0,1,0,762v.73A12.9,12.9,0,0,0,6.39,760C17.21,751.94,22.93,733.3,24.4,701.34Z" fill="#5d5d5d"/><path d="M317.34,213.81c-4.66-18.42-42.29-23.35-85.87-29.05-10.76-1.41-21.9-2.87-32.71-4.57C151,172.65,107.25,148.66,65,125.47,43.78,113.85,22.14,102,0,92.24v1.83c21.85,9.67,43.22,21.4,64.15,32.87,42.42,23.26,86.28,47.32,134.35,54.91,10.83,1.71,22,3.16,32.76,4.58,41.18,5.38,80.07,10.47,84.45,27.79,3.42,13.49-14.15,34-53.71,62.56-55.51,40.15-102.08,58.84-146.57,58.84-25.29,0-50.36-6.27-74.52-18.65-15-7.71-28.27-17.08-40.91-26.54v2.1c12.39,9.24,25.39,18.37,40.14,25.93,24.4,12.5,49.73,18.84,75.28,18.84h0c44.86,0,91.75-18.8,147.55-59.15C303.72,248.68,321,228.24,317.34,213.81Z" fill="#5d5d5d"/><path d="M6.22,592.63c6.47-11.37,14.86-21.69,23-31.67,11.7-14.4,23.8-29.28,30.3-47.57,11.48-32.24-11-47.14-34.83-62.91-2.2-1.46-4.41-2.92-6.63-4.42-3.92-2.66-7.63-5.17-11.28-7.7-1.8-1.24-4-2.84-6.74-4.82v.89c2.53,1.84,4.63,3.34,6.33,4.52,3.65,2.54,7.36,5.05,11.31,7.72,2.2,1.48,4.41,2.95,6.61,4.41,23.58,15.61,45.84,30.36,34.56,62.07-6.47,18.17-18.53,33-30.18,47.36-8.13,10-16.53,20.34-23,31.77A106.54,106.54,0,0,0,0,604.87v1.94c.2-.49.39-1,.58-1.47A109,109,0,0,1,6.22,592.63Z" fill="#5d5d5d"/><path d="M759.31,1008.91c-.92-8.12-6-15.16-15.19-20.92C727.58,977.57,693,972.91,666,972.91c-5.26,0-10.09.18-14.33.53-26.32,2.18-53.73,7.37-83.8,15.87-4.3,1.22-8.58,2.53-12.72,3.91-50.13,16.64-79.11,43-93,86.78h1.27c13.87-43.19,42.59-69.19,92.14-85.65,4.12-1.36,8.39-2.67,12.67-3.88,30-8.48,57.32-13.66,83.56-15.84,4.22-.35,9-.52,14.24-.52,26.79,0,61.13,4.6,77.48,14.89,8.83,5.56,13.75,12.31,14.63,20,2.21,19.45-20.49,42.28-38.72,60.62-3.68,3.7-7.11,7.15-10.1,10.33H711c2.8-2.94,5.93-6.1,9.29-9.49C738.67,1052,761.59,1028.94,759.31,1008.91Z" fill="#5d5d5d"/><path d="M300.92,947.87c3.88-2.44,8.37-2.76,12.24-2.76,1.83,0,3.67.08,5.61.17s3.94.18,5.92.18c4.48,0,10.29-.42,15.59-3.7,13.64-8.45,18.16-18.26,16.58-23.8-1-3.65-4.58-5.75-9.72-5.75-4.58,0-10.4,1.64-16.83,4.74-4.11,2-7.81,5.54-11.39,9-4.32,4.15-8.79,8.44-13.91,9.84a17.53,17.53,0,0,1-4.77.65,32.53,32.53,0,0,1-9.22-1.72,34.54,34.54,0,0,0-9.64-1.77,19.46,19.46,0,0,0-3.58.33c-6.09,1.14-10.26,5-14.29,8.74-3.35,3.11-6.82,6.33-11.38,7.92-5.16,1.81-12.16,2.68-21.4,2.68-12,0-25.31-1.5-36-2.71-3.08-.35-5.93-.68-8.47-.93-22.21-2.23-45.3-9.19-70.6-21.27C88.88,914.89,69.72,903,54.31,893.47c-8.41-5.21-17-7.85-25.57-7.85-10.87,0-20.53,4.14-28.74,10.5V897c8.19-6.46,17.85-10.67,28.74-10.67,8.42,0,16.89,2.61,25.21,7.76,15.41,9.54,34.59,21.42,61.4,34.23,25.37,12.12,48.54,19.1,70.84,21.33,2.53.26,5.39.58,8.46.93,10.71,1.21,24,2.72,36.08,2.72,9.32,0,16.4-.89,21.63-2.72,4.71-1.64,8.23-4.91,11.64-8.07,4.14-3.84,8.05-7.46,13.93-8.56a19,19,0,0,1,3.45-.32,33.81,33.81,0,0,1,9.44,1.75,34.1,34.1,0,0,0,9.42,1.74,18.59,18.59,0,0,0,5-.67c5.3-1.46,9.84-5.81,14.22-10,3.54-3.4,7.19-6.9,11.2-8.84,6.33-3.05,12-4.67,16.52-4.67,4.86,0,8.07,1.86,9,5.23,1.5,5.29-2.95,14.73-16.27,23-5.14,3.19-10.83,3.6-15.21,3.6-2,0-4-.09-5.89-.18s-3.79-.18-5.64-.18c-4,0-8.58.35-12.62,2.88-4.45,2.8-7.83,9.85-11.09,16.67a71.2,71.2,0,0,1-5.81,10.7c-16.42,22.38-17.43,46.46-13.88,75.74a234.94,234.94,0,0,0,5.72,29.63h.75a233.05,233.05,0,0,1-5.75-29.71c-3.53-29.12-2.54-53,13.74-75.23a71.58,71.58,0,0,0,5.88-10.82C293.32,957.51,296.65,950.55,300.92,947.87Z" fill="#5d5d5d"/><path d="M376.19,146.23c-4.14,0-10,2.63-14.25,15.18-4.82,14.1,4.46,17.38,14.29,20.85,1.73.61,3.51,1.24,5.24,1.93a27.27,27.27,0,0,0,9.68,2.35c2.83,0,4.86-.95,6.05-2.83,3.67-5.83-2.22-18.71-4.92-24C387.91,151.27,381.89,146.23,376.19,146.23Zm20,36.84c-1.91,3-6.76,3-14.26,0-1.76-.7-3.55-1.34-5.29-2-9.65-3.41-18-6.35-13.56-19.33,3.22-9.41,7.75-14.37,13.12-14.37s10.86,4.8,15,12.85C396.64,170.87,398.5,179.39,396.18,183.07Z" fill="#5d5d5d"/><path d="M64.86,539.8l3.26-3.86c15.45-18.17,31.43-37,13.27-59.43-14-17.38-35.24-31.72-53.94-44.36-3.88-2.62-7.54-5.1-11.14-7.6-2.42-1.67-5.7-4.07-9.49-6.84l-6.82-5v.89c2.28,1.66,4.43,3.22,6.39,4.66,3.8,2.77,7.08,5.16,9.51,6.85,3.61,2.5,7.27,5,11.15,7.6,18.66,12.61,39.8,26.91,53.78,44.21,17.78,22,2,40.57-13.25,58.52-1.1,1.29-2.2,2.57-3.27,3.85-13.41,16-30.55,37.4-44.11,61.25A254.91,254.91,0,0,0,0,645.87v2.37a253.54,253.54,0,0,1,20.83-47.3C34.36,577.14,51.47,555.76,64.86,539.8Z" fill="#5d5d5d"/><path d="M390.32,1076a30.26,30.26,0,0,0-4.59-9.19c-2.66-4-5-7.49-4-14,1.25-9,12.09-31.08,23.8-31.08h.35c5.86.23,9.58,1.71,11.05,4.4,2.71,4.93-2.17,13.27-6.09,20-2.12,3.62-3.95,6.76-4.28,8.8-.65,4.05,1.15,6.37,2.89,8.61,1.38,1.79,2.69,3.47,2.63,5.94-.13,5.22-2.44,7.66-4.88,10.25l-.34.36h1c2.49-2.64,4.82-5.19,4.95-10.59.06-2.73-1.38-4.6-2.78-6.4-1.65-2.12-3.35-4.31-2.75-8.06.31-1.91,2.11-5,4.19-8.55,4-6.86,9-15.39,6.11-20.68-1.63-3-5.45-4.53-11.66-4.77h-.38c-12.09,0-23.24,22.56-24.51,31.7-1,6.83,1.53,10.58,4.15,14.54a29.77,29.77,0,0,1,4.49,9,23.68,23.68,0,0,1,.73,3.83h.71A22.82,22.82,0,0,0,390.32,1076Z" fill="#5d5d5d"/><path d="M51.19,296.89c18.24,9.34,33.74,13.7,48.78,13.7,15.73,0,29.73-4.73,45.93-10.21,9.2-3.1,19.61-6.62,31.43-9.59A59.34,59.34,0,0,1,192,289.12c2.29,0,4.48.08,6.61.17s3.91.16,5.79.16c9.73,0,17.46-2.3,25.94-13.75a65.62,65.62,0,0,0,9.75-19c2.83-7.87,5.06-14.09,17.51-23,3.19-2.28,7.76-4.08,12.18-5.82,7.11-2.8,13.26-5.21,13.51-9.31.21-3.31-3.66-7-12.16-11.65-10.19-5.52-24.72-6.27-37.6-6.27-5.74,0-11.77.18-17.61.35s-11.91.35-17.72.35c-12.92,0-22-.9-29.37-2.9C127,187.15,87.85,165.67,53.3,146.72,35.16,136.78,17.57,127.14,0,118.86v1.33c17.37,8.21,34.78,17.75,52.72,27.58,34.61,19,73.84,40.5,115.74,51.87,7.5,2,16.66,3,29.69,3,5.82,0,11.89-.18,17.76-.35s11.84-.35,17.57-.35c12.72,0,27.08.73,37,6.13,7.82,4.26,11.7,7.8,11.53,10.52-.2,3.33-6.3,5.73-12.75,8.27-4.49,1.76-9.13,3.59-12.44,5.95-12.75,9.12-15.15,15.82-17.94,23.57A64.34,64.34,0,0,1,229.32,275c-8.17,11-15.61,13.27-25,13.27-1.86,0-3.75-.08-5.75-.16s-4.34-.17-6.65-.17A60.24,60.24,0,0,0,177,289.63c-11.85,3-22.3,6.5-31.51,9.62-16.11,5.44-30,10.14-45.55,10.14-14.84,0-30.17-4.31-48.23-13.57C35.22,287.36,20.37,276.1,6,265.2l-6-4.53v1.5l5.28,4C19.68,277.08,34.58,288.38,51.19,296.89Z" fill="#5d5d5d"/><path d="M635.24,1046.59a14.34,14.34,0,0,0-5.34-.75c-13.92,0-43.42,8.3-43.72,8.38-3.3.94-6.58,2-9.76,3-16.32,5.42-28.4,12.67-37.19,22.78h.95c8.68-9.77,20.54-16.81,36.46-22.09,3.17-1.06,6.45-2.06,9.74-3,.3-.08,29.7-8.36,43.52-8.36a13.67,13.67,0,0,1,5.05.7c5.34,2.29,3.38,8.36-.92,21.67-1,3.19-2.22,6.93-3.46,11.08h.75c1.22-4.06,2.39-7.73,3.4-10.86C639,1055.82,641.17,1049.13,635.24,1046.59Z" fill="#5d5d5d"/><path d="M602.67,1068.19a45,45,0,0,0-12,2c-3.08.87-6.12,1.8-9.06,2.78a89.56,89.56,0,0,0-16.2,7.06H568a91,91,0,0,1,14.07-5.92c2.92-1,6-1.9,9-2.77a44.28,44.28,0,0,1,11.65-1.92c6,0,9.61,2.19,10.78,6.51a13.81,13.81,0,0,1,.34,4.1H615a15.21,15.21,0,0,0-.39-4.41C613.69,1072.21,610.88,1068.19,602.67,1068.19Z" fill="#5d5d5d"/><path d="M678.06,1028.53c-2.09-4.2-9.29-5.7-22.2-4.63-23,1.91-47.31,6.54-74.2,14.14-3.59,1-7.13,2.11-10.53,3.24-24.41,8.1-41.44,20.53-52.51,38.72h.85c11-17.84,27.83-30.06,51.88-38,3.39-1.13,6.93-2.21,10.51-3.22,26.84-7.6,51.07-12.21,74.06-14.12,2.64-.22,5.07-.33,7.22-.33,8.08,0,12.75,1.49,14.27,4.56,2.69,5.39-4.87,15.38-12.17,25.05-1.29,1.71-2.59,3.42-3.84,5.13a223.37,223.37,0,0,0-13.63,21h.83A222.67,222.67,0,0,1,662,1059.46c1.25-1.71,2.55-3.42,3.84-5.13C673.59,1044,680.94,1034.32,678.06,1028.53Z" fill="#5d5d5d"/><path d="M702.28,1040.87c11.06-10.4,15.51-18.62,13.2-24.45-2.75-6.92-15-10.43-36.28-10.43-7.11,0-15.2.38-24.73,1.17-24.12,2-49.43,6.81-77.38,14.72-3.78,1.07-7.57,2.23-11.26,3.45-32,10.62-53.62,28.33-66.33,54.67h.81c12.66-26,34.08-43.47,65.75-54,3.68-1.22,7.45-2.38,11.23-3.45,27.9-7.89,53.17-12.7,77.24-14.69,9.51-.79,17.58-1.17,24.67-1.17,21,0,33,3.35,35.61,10,2.19,5.53-2.2,13.49-13,23.67-2.18,2-4.28,4-6,5.8-8.28,8.33-15.44,15.53-20.79,22.81-2.66,3.61-5.17,7.3-7.6,11h.85c2.35-3.59,4.77-7.14,7.33-10.62,5.32-7.23,12.46-14.41,20.73-22.73C698,1044.89,700.11,1042.91,702.28,1040.87Z" fill="#5d5d5d"/><path d="M62.25,275.31c17.73,9.09,35.12,13.51,53.16,13.51,10.1,0,31.91-4.12,50.93-11,16.66-6,36.52-16.07,36.57-29.57.05-15.89-30.64-24.72-49-30-4-1.14-7.43-2.13-9.73-3C111.37,203.37,78.79,188.34,41.65,168,27.47,160.2,13.64,152.62,0,145.8v.81c13.52,6.77,27.24,14.29,41.3,22C78.47,189,111.09,204,144,215.94c2.32.84,5.78,1.83,9.78,3,18.14,5.21,48.5,13.95,48.45,29.3-.08,23.32-65.84,39.87-86.79,39.87-17.92,0-35.2-4.4-52.83-13.43-14.66-7.51-28.67-18.13-42.21-28.4C13.8,241.3,7.05,236.19,0,231.22v.88C6.89,237,13.5,242,19.92,246.85,33.49,257.13,47.53,267.77,62.25,275.31Z" fill="#5d5d5d"/><path d="M69.9,260.36C85.2,268.2,100.07,272,115.41,272c13.31,0,30.69-3.95,37.39-12.61a14.51,14.51,0,0,0,2.44-13.14c-3-11.63-27.41-19.87-45.21-25.87-5.75-2-10.72-3.62-13.77-5-20.56-9.54-40.91-20.7-60.59-31.5l-2.19-1.2C22.1,176.42,11,170.31,0,164.66v.81c10.84,5.6,21.88,11.65,33.13,17.82l2.2,1.2c19.68,10.8,40,22,60.63,31.52,3.08,1.44,8.07,3.12,13.84,5.07,16.65,5.62,41.8,14.11,44.74,25.37A13.85,13.85,0,0,1,152.23,259c-6.55,8.47-23.68,12.33-36.86,12.33-15.18,0-29.94-3.8-45.14-11.58-13.35-6.84-26.76-17-39.73-26.84C21.11,225.77,11,218.14,0,210.93v.86c10.87,7.13,20.81,14.65,30.07,21.67C43.06,243.31,56.5,253.49,69.9,260.36Z" fill="#5d5d5d"/><path d="M425.94,14.37c1.2-4.84,2.38-9.61,3.49-14.37h-1.24c-1.08,4.66-2.24,9.34-3.41,14.09-2.21,8.9-4.48,18.1-6.33,27.49C412.3,72.9,407,114,420.71,153.81c5.57,16.2,19.45,29.43,31.7,41.1,10.9,10.39,20.31,19.36,19.47,26.9-.39,3.47-2.93,6.55-7.75,9.43-2.23,1.32-6,2-11.31,2-18.42,0-50.93-8.13-75-16.19-26.15-8.76-58.37-22.73-63.36-39.48-1.6-5.33-.29-10.72,3.88-16,5.35-6.79,11.09-12.76,16.64-18.53,10.93-11.35,21.24-22.08,28.07-38,9.74-22.71,10.93-46.38,3.52-70.38-1.8-5.81-3.61-11.17-5.2-15.9C359,11.76,357,5.66,355.59,0h-1.25c1.42,5.77,3.51,12,5.92,19.13,1.59,4.72,3.4,10.06,5.19,15.86,7.32,23.72,6.15,47.12-3.47,69.56-6.74,15.72-17,26.37-27.83,37.64a249.5,249.5,0,0,0-16.72,18.61c-4.43,5.62-5.8,11.38-4.09,17.11,5.14,17.24,37.71,31.41,64.13,40.27,24.14,8.09,56.8,16.25,75.35,16.25,5.5,0,9.51-.72,11.92-2.16,5.17-3.08,7.89-6.46,8.33-10.32.91-8.13-8.7-17.3-19.83-27.9-12.15-11.58-25.92-24.71-31.39-40.63-13.62-39.58-8.34-80.43-2.22-111.6C421.47,32.45,423.74,23.26,425.94,14.37Z" fill="#5d5d5d"/><path d="M227.12,575.7c-1.2,2-2.33,3.86-3.31,5.25-12.15,17.11-26.52,32.28-42.69,48.93-2.18,2.24-4.42,4.51-6.68,6.79-13.36,13.49-27.16,27.44-35.42,43.93-3.21,6.4-4.19,11.38-2.86,14.43a4.69,4.69,0,0,0,3.14,2.72,7.56,7.56,0,0,0,2,.26c3,0,6.89-1.43,11.36-4.13,8.88-5.38,17.31-12,25.47-18.43,6.68-5.26,13.59-10.7,20.72-15.42,28.73-19,47.71-31.62,56.58-67.12,1.84-7.36,2.92-24.13-2.76-31.41A8.79,8.79,0,0,0,245,558C237.6,558.34,231.54,568.37,227.12,575.7Zm18.43-17a8,8,0,0,1,6.58,3.28c5.53,7.08,4.45,23.54,2.63,30.79-8.8,35.23-27.69,47.74-56.29,66.7-7.14,4.73-14.06,10.18-20.76,15.44-8.14,6.41-16.56,13-25.39,18.38-5.39,3.26-10,4.62-12.82,3.79a4,4,0,0,1-2.68-2.31c-1.23-2.8-.22-7.71,2.84-13.81,8.21-16.39,22-30.3,35.29-43.75,2.27-2.29,4.51-4.55,6.69-6.8,16.19-16.67,30.58-31.86,42.76-49,1-1.4,2.13-3.29,3.34-5.28,4.33-7.2,10.27-17,17.29-17.4Z" fill="#5d5d5d"/><path d="M77.44,245.62c4.79,2.45,18.24,6.83,28,6.83,3.48,0,6.14-.58,7.89-1.71,3.81-2.47,5.49-4.79,5.13-7.08-.77-5.06-11.77-8.11-20.61-10.57a68,68,0,0,1-8.56-2.71c-21.07-9.77-41.66-21.07-61.58-32l-2.21-1.21c-8.63-4.73-17.14-9.39-25.5-13.82v1.36c8.18,4.34,16.49,8.89,24.94,13.52l2.19,1.2c19.94,10.94,40.55,22.25,61.66,32a68.82,68.82,0,0,0,8.74,2.78c8.06,2.24,19.09,5.3,19.75,9.59.27,1.75-1.28,3.73-4.6,5.89-1.56,1-4,1.52-7.24,1.52-9.44,0-22.89-4.36-27.45-6.7C66,238.4,53.2,228.7,40.8,219.3,29,210.34,15.52,200.14,0,190.87v1.41c15.22,9.15,28.45,19.17,40.1,28C52.51,229.69,65.35,239.42,77.44,245.62Z" fill="#5d5d5d"/><path d="M41.42,702.12c2.87-62.21,45.75-111.23,80.19-150.63l2.72-3.1c41-46.9,39.3-63.27,20.08-82.24-21.07-20.79-54.29-52-99.25-83.21C29.82,372.3,14.64,362.58,0,353.92v1.39c14.42,8.55,29.37,18.14,44.48,28.62,44.88,31.12,78.05,62.32,99.09,83.08,18.66,18.41,20.18,34.42-20.15,80.59l-2.71,3.1c-34.57,39.54-77.6,88.74-80.48,151.37C37.52,760.85,15.38,778.11,0,783v1.26C15.73,779.41,38.66,762.07,41.42,702.12Z" fill="#5d5d5d"/><path d="M736.93,1007.48c-7-15-35.54-18.19-58.21-18.19-8,0-16.59.38-25.64,1.13-25.2,2.09-51.55,7.09-80.56,15.29-4.06,1.15-8.09,2.39-12,3.68-25,8.28-44.16,20.27-58.69,36.64a116.28,116.28,0,0,0-20.79,34h.75c13.89-34.27,39.5-56.83,78.95-69.93,3.89-1.29,7.91-2.52,12-3.67,29-8.19,55.27-13.18,80.42-15.26,9-.75,17.63-1.13,25.58-1.13,22.46,0,50.67,3.08,57.56,17.77,7.55,16.1-10.81,33.36-23,44.78-2.07,1.94-4,3.78-5.66,5.43-7.81,7.85-14.55,14.64-19.17,20.92-.27.36-.52.73-.79,1.09h.89l.48-.67c4.58-6.23,11.31-13,19.1-20.83,1.63-1.64,3.58-3.47,5.64-5.41C726.11,1041.52,744.71,1024,736.93,1007.48Z" fill="#5d5d5d"/><path d="M242.51,968.71c-10.68-2.74-22.15-2.92-33.25-3.09-6.41-.1-13-.2-19.35-.8-30.22-2.88-56.11-9.86-81.49-22-27.61-13.18-47.21-25.32-63-35.08-5.71-3.53-11.34-5.33-16.72-5.33C18.7,902.42,8.32,909,0,920v1.2c8.27-11.26,18.69-18,28.74-18,5.24,0,10.74,1.76,16.34,5.23,15.77,9.76,35.39,21.91,63,35.12,25.45,12.15,51.42,19.16,81.73,22,6.35.61,13,.71,19.41.81,11.05.17,22.48.35,33.08,3.07,16.5,4.24,15.9,16.29,13.56,30.42-2.79,16.87-5.11,33.58-2.81,52.56A244.67,244.67,0,0,0,258.2,1080h.74a243.63,243.63,0,0,1-5.14-27.7c-2.29-18.88,0-35.54,2.8-52.35C258.92,986,259.58,973.1,242.51,968.71Z" fill="#5d5d5d"/><path d="M306.33,20.76C322.78,72,329.46,99.81,288.64,123.41a77.34,77.34,0,0,1-22.61,8.5,110.75,110.75,0,0,1-23,2.26c-75.88,0-180.1-63.41-236.1-97.47L5,35.53,0,32.48v1.41l4.4,2.67,1.91,1.16C62.4,71.84,166.82,135.36,243,135.37a111.78,111.78,0,0,0,23.25-2.29,78.38,78.38,0,0,0,23-8.63c41.62-24.06,34.88-52.23,18.23-104.06-2.11-6.56-4.3-13.4-6.3-20.39h-1.25C302,7.12,304.18,14.08,306.33,20.76Z" fill="#5d5d5d"/><path d="M210.53,13.45c.48,1.8,1.16,4,1.92,6.52,2.16,7.1,1.78,11.89-1.15,14.23A10,10,0,0,1,204.93,36c-11.71,0-31.21-10.45-37.62-13.88-3.13-1.68-5.49-2.94-7.34-3.86l-9.85-4.86Q136.59,6.74,123.77,0h-1.54q13.36,7.05,27.58,14l9.84,4.86c1.84.92,4.19,2.18,7.32,3.85,6.45,3.46,26.06,14,38,14a10.71,10.71,0,0,0,6.82-1.93c3.18-2.54,3.65-7.59,1.39-15-.76-2.49-1.43-4.7-1.92-6.51-1.15-4.34-2.32-8.74-3.4-13.25h-.74C208.18,4.58,209.36,9.05,210.53,13.45Z" fill="#5d5d5d"/><path d="M283.71,28c6.66,20.74,13,46.75,3.07,63.93-4.93,8.52-13.58,14.14-25.69,16.72a87.48,87.48,0,0,1-18,1.74c-69.23,0-169.76-61.16-223.76-94l-10-6.06Q4.73,7.58,0,5.15V6q4.55,2.36,8.94,5L18.9,17C73,49.9,173.61,111.12,243,111.13a87.54,87.54,0,0,0,18.2-1.76c12.32-2.62,21.12-8.36,26.16-17.05,10.1-17.43,3.7-43.64-3-64.52-2.87-8.95-5.72-18.25-8.16-27.8h-.75C277.94,9.63,280.81,19,283.71,28Z" fill="#5d5d5d"/><path d="M226.77,9.13c.43,1.63,1,3.63,1.75,5.95,3.48,11.42,8.75,28.68,3.77,36.64A14.16,14.16,0,0,1,223,58a25.61,25.61,0,0,1-5.59.57c-17.54,0-43.86-14.12-58-21.7-2.74-1.47-5.11-2.74-6.89-3.63l-1.23-.61-3.89-1.93-4.63-2.27c-19.1-9.36-37.25-18.93-54-28.45H87.3c17,9.73,35.57,19.53,55.11,29.1L147,31.37l3.88,1.92,1.23.62c1.77.88,4.13,2.15,6.87,3.62,14.2,7.61,40.62,21.78,58.34,21.78a26.23,26.23,0,0,0,5.74-.59,14.82,14.82,0,0,0,9.8-6.62c5.15-8.24-.17-25.69-3.69-37.24-.71-2.3-1.31-4.3-1.75-5.92C226.68,6,225.89,3,225.12,0h-.74C225.16,3.08,226,6.12,226.77,9.13Z" fill="#5d5d5d"/><path d="M243,4.8c3.41,12.81,6.94,26.05,7.31,39.71.48,17.66-6.4,27.78-20.45,30.06a42.47,42.47,0,0,1-6.78.51c-24.4,0-59.34-17.42-78.1-26.78-1.83-.92-3.52-1.76-5-2.5l-4.62-2.27C106.13,29.23,79.07,14.4,55.83,0H54.47C77.94,14.6,105.37,29.67,135,44.18l4.63,2.27,5,2.49c18.83,9.39,53.86,26.86,78.43,26.86a44,44,0,0,0,6.9-.52c14.46-2.35,21.54-12.71,21.05-30.79-.38-13.75-3.91-27-7.33-39.87-.41-1.53-.82-3.07-1.22-4.62h-.75C242.15,1.61,242.58,3.21,243,4.8Z" fill="#5d5d5d"/><path d="M267.71,33.16l1.08,3.3c3.84,11.68,7.8,23.75,1.4,35.4-5.35,9.72-16.18,17.6-27.59,20.08-1.17.26-2.35.45-3.5.59a78.14,78.14,0,0,1-8.92.5c-32.22,0-70-18.58-97.63-32.14l-4.62-2.27C92.46,41.25,58.22,20.42,28,2L24.64,0H23.26l4.37,2.66C57.86,21,92.12,41.89,127.61,59.27l4.62,2.26c27.67,13.6,65.56,32.22,98,32.22a77.14,77.14,0,0,0,9-.51c1.18-.13,2.38-.34,3.57-.59,11.61-2.52,22.63-10.55,28.07-20.44,6.55-11.93,2.54-24.15-1.35-36-.36-1.1-.72-2.2-1.07-3.3C265,22.42,261.69,11.4,258.94,0h-.74C261,11.48,264.31,22.57,267.71,33.16Z" fill="#5d5d5d"/><path d="M241.58,535.76c-10.52,2.6-19.73,17.18-27.13,28.89-2.59,4.1-5,8-7.18,10.74-11.91,15.38-25.36,29.22-38.36,42.61-3.39,3.49-7.65,7.43-12.15,11.61-13.4,12.41-30.06,27.86-35.13,42-4.26,11.89-1.75,23.22.68,34.19,2,9,4.06,18.3,2.43,28-1,6-4.65,11.9-8.49,18.15-4.61,7.48-9.36,15.22-9.65,23.53a22.26,22.26,0,0,0,1.3,8.31c3.18,8.89,6.48,13,10.41,13s8.14-4,14.42-14c6-9.47,8.35-20.45,10.63-31.07s4.66-21.67,10.7-31.2c11.51-18.16,31.82-31.53,49.74-43.33l4.48-3C238,654.53,261.51,639,272,597c2.78-11.09,2.05-39.34-9.24-53.8C257.27,536.22,250.07,533.67,241.58,535.76ZM261.81,544c10.11,13,12.13,40.35,9,52.77-10.37,41.47-33.69,56.92-63.22,76.5l-4.48,3c-18,11.86-38.43,25.31-50.08,43.69-6.16,9.71-8.55,20.83-10.87,31.59-2.25,10.52-4.59,21.39-10.47,30.68-4.19,6.63-9.07,13.41-13.4,13.41-3.3,0-6.34-4-9.28-12.23a20.74,20.74,0,0,1-1.23-7.87c.27-8,5-15.6,9.47-22.94,3.91-6.35,7.6-12.35,8.65-18.58,1.67-9.89-.42-19.31-2.44-28.42-2.5-11.3-4.86-22-.72-33.53,5-13.85,21.52-29.19,34.81-41.51,4.52-4.19,8.79-8.15,12.2-11.66,13-13.41,26.5-27.27,38.45-42.71,2.18-2.82,4.64-6.71,7.24-10.83,7.29-11.53,16.36-25.88,26.41-28.36a22.11,22.11,0,0,1,5.28-.68C252.87,536.25,257.8,538.85,261.81,544Z" fill="#5d5d5d"/><path d="M252.62,483.65c-5.71-8.23-10.68-9.29-15.94-10.41-3.64-.78-7.4-1.58-11.68-4.82l-.36-.4c-12.25-13.7-53.29-58.38-67.19-58.38a4.51,4.51,0,0,0-3.79,1.72c-1.86,2.42-1.77,7.3.28,14.91,1.22,4.52,12.85,10.76,25.15,17.36,10.25,5.51,20.86,11.2,24.45,15.47,3.22,3.82,7.46,9.13,7.08,11-.1.5-.64.79-1.59,1.26-2.14,1.07-5.38,2.68-3.66,10.25,1.2,5.24,4.44,10.44,7.57,15.47,2.92,4.69,5.68,9.12,6.8,13.42,3.08,11.8-16.26,33.47-29.06,47.81-4.22,4.73-7.87,8.82-10.19,11.9-9.32,12.37-20.94,23.82-32.18,34.89-21.86,21.55-44.46,43.82-52.41,74.58-11.87,46-14.24,86.54-7,120.62,3.84,18.19,17.08,43.55,29.93,43.55,8,0,13.82-9.61,17.31-28.56,13.44-73,50.1-97.31,85.55-120.8,31.42-20.81,61.09-40.47,73.85-91.53,4.81-19.26-2.59-48.88-12.21-65.28-4.29-7.31-9.7-11.43-14.93-15.41-4.59-3.49-8.94-6.79-12.29-12.06-2.37-3.73-1.95-8.08-1.5-12.68C255,492.74,255.52,487.82,252.62,483.65Zm2,27.42c3.52,5.52,8,8.91,12.69,12.5,5.1,3.88,10.38,7.89,14.5,14.92,9.45,16.11,16.74,45.17,12,64-12.61,50.43-42,69.91-73.14,90.54C185,716.74,148,741.23,134.46,814.94c-3.28,17.79-8.69,27.19-15.66,27.19-10.91,0-24.16-22.69-28.29-42.21-7.15-33.83-4.79-74.15,7-119.86,7.83-30.31,30.27-52.42,52-73.8,11.28-11.12,22.94-22.61,32.34-35.08,2.28-3,5.91-7.08,10.1-11.79,13.82-15.48,32.74-36.69,29.44-49.35-1.19-4.56-4-9.09-7-13.89s-6.23-10-7.36-14.95c-1.43-6.28.8-7.39,2.77-8.37,1.09-.54,2.21-1.1,2.49-2.42.36-1.76-.76-4.45-7.45-12.4-3.8-4.51-14.54-10.28-24.93-15.86-10.92-5.86-23.29-12.5-24.32-16.32-2.34-8.68-1.61-12.1-.58-13.45a2.89,2.89,0,0,1,2.46-1.06c10.49,0,40.94,29.87,65.94,57.82.31.35.49.52.49.53,4.69,3.55,8.81,4.43,12.45,5.21,5.14,1.1,9.58,2,14.91,9.73,2.54,3.66,2.12,8.06,1.66,12.72S252,506.85,254.66,511.07Z" fill="#5d5d5d"/><path d="M0,327.86c80.93,45.8,168.15,118.66,184,154.88,9.54,21.75-13.58,47.74-42.85,80.64C107.93,600.77,66.54,647.31,64,703.16c-3.14,68.08-36.88,96-64,104.5v1.76C27.7,801,62.44,772.65,65.64,703.24c2.55-55.26,43.72-101.55,76.8-138.74,29.66-33.35,53.1-59.7,43.13-82.44-16-36.49-104-110-185.57-156Z" fill="#5d5d5d"/><path d="M407.68.13a1.59,1.59,0,0,1,.13-.13h-1a19.39,19.39,0,0,0-4.07,5.75c-3,7-2.14,14.3-1.32,21.36a73.79,73.79,0,0,1,.74,12,134.63,134.63,0,0,1-2.8,19c-1,5.18-2.07,10.54-2.58,15.76-3.07,31.74-.29,60.45,8.26,85.32,1.78,5.16,8.74,13.1,16.1,21.51,9.42,10.75,19.15,21.86,19.54,28.61a4.62,4.62,0,0,1-1.18,3.63c-2.55,2.69-9.37,3.19-20.28,1.46-7.93-1.26-15.55-4.57-22.92-7.77-4.3-1.87-8.75-3.81-13.2-5.3l-3.89-1.29c-16-5.27-37.81-12.48-40.94-25.11-1.49-6,1.43-12.92,8.7-20.47,11.46-11.91,23.3-24.23,31.32-42.92,7.69-17.92,16.53-52.79,13.15-71.67a24.31,24.31,0,0,0-3.87-9c-2.1-3.38-4.07-6.57-3.17-12.36a20.6,20.6,0,0,1,3.79-9c1.76-2.64,3.29-5,2.86-9.56h-.71c.42,4.3-1,6.53-2.75,9.16a21.21,21.21,0,0,0-3.9,9.25c-.94,6.05,1.1,9.35,3.26,12.85A23.56,23.56,0,0,1,390.74,40c3.36,18.74-5.45,53.42-13.1,71.26-8,18.57-19.77,30.84-31.18,42.7-7.45,7.74-10.44,14.86-8.88,21.14,3.23,13,25.3,20.3,41.42,25.62l3.88,1.29c4.42,1.48,8.85,3.41,13.14,5.28,7.42,3.22,15.08,6.55,23.1,7.82a72.58,72.58,0,0,0,11,1c4.95,0,8.18-.89,9.9-2.71a5.35,5.35,0,0,0,1.38-4.16c-.4-7-10.22-18.2-19.72-29-7.31-8.36-14.23-16.24-16-21.27-8.52-24.78-11.29-53.38-8.22-85,.5-5.18,1.55-10.52,2.56-15.69a134.41,134.41,0,0,0,2.82-19.13,73.94,73.94,0,0,0-.74-12.1c-.85-7.29-1.65-14.17,1.27-21A19.81,19.81,0,0,1,407.68.13Z" fill="#5d5d5d"/><path d="M329,13.5c15.19,47.29,30.89,96.2-28.42,130.48A101.14,101.14,0,0,1,271,155.15a134.94,134.94,0,0,1-28,2.78c-80.18,0-180.49-59.63-243-97.64v2c62.75,38.12,162.76,97.35,243,97.35a136.32,136.32,0,0,0,28.3-2.82,102.45,102.45,0,0,0,30-11.35c60.49-35,44.57-84.53,29.18-132.46-1.4-4.36-2.79-8.69-4.11-13h-1.76C326.05,4.46,327.5,9,329,13.5Z" fill="#5d5d5d"/><path d="M230.09,991.46c-8.74-8.07-21.8-8.76-33.32-9.36-3-.16-5.76-.3-8.46-.56C156.07,978.47,128.39,971,101.18,958c-23.41-11.17-41.54-21.37-57.06-32.08a22.68,22.68,0,0,0-12.93-4.43c-9.84,0-19.1,7.72-24.77,20.65C4.28,947,2.16,951.81,0,956.55v1.73c2.4-5.21,4.72-10.49,7.08-15.87,5.55-12.65,14.57-20.21,24.11-20.21a22,22,0,0,1,12.52,4.3c15.55,10.74,33.72,21,57.16,32.15,27.28,13,55,20.53,87.37,23.61,2.72.26,5.52.4,8.49.56,11.4.6,24.32,1.27,32.87,9.17,9.9,9.17,8.51,26.56,7.28,41.91-.61,7.55-1.18,14.68-.47,20.51a193.66,193.66,0,0,0,5.32,25.59h.75a192.55,192.55,0,0,1-5.36-25.68c-.7-5.76-.13-12.85.47-20.36C238.84,1018.45,240.25,1000.87,230.09,991.46Z" fill="#5d5d5d"/><path d="M5.77,1033.12c-2.1-.84-4-1.62-5.77-2.52v.81c1.69.85,3.55,1.59,5.51,2.38,1,.4,2.05.82,3.11,1.27,15.44,6.51,27.24,12.65,37.12,19.3,12.38,8.35,26.38,17,41.56,25.64h1.45c-15.59-8.87-29.94-17.7-42.61-26.23-9.92-6.69-21.75-12.84-37.24-19.38C7.83,1033.94,6.79,1033.52,5.77,1033.12Z" fill="#5d5d5d"/><path d="M36.35,1068.3c5.72,3.85,11.78,7.76,18.12,11.7h1.36c-6.68-4.14-13.07-8.25-19.08-12.3C28.29,1062,14,1054.64,0,1048.88v.78C13.88,1055.38,28,1062.65,36.35,1068.3Z" fill="#5d5d5d"/><path d="M22.42,499.64C21.24,491.9,15.9,485,6.1,478.49c-2-1.33-4-2.67-6.1-4.06v.86q2.88,1.93,5.7,3.8c9.63,6.38,14.86,13.13,16,20.66,1.91,12.44-7.55,25.28-19.16,39.56-.78,1-1.65,2.16-2.55,3.43V544c1.12-1.6,2.17-3.06,3.11-4.22C14.83,525.35,24.37,512.37,22.42,499.64Z" fill="#5d5d5d"/><path d="M18,1076h0a165.9,165.9,0,0,0-18-9.42v.78a167.38,167.38,0,0,1,17.66,9.25l5.6,3.4h1.38C19.71,1077,18.4,1076.21,18,1076Z" fill="#5d5d5d"/><path d="M163.65,2.38c4.51,2.28,10.67,5.4,16.11,5.4a10.23,10.23,0,0,0,5.89-1.67l.39-.3A11.51,11.51,0,0,0,189.68,0h-1.26a10.09,10.09,0,0,1-3.13,4.88l-.32.24a9,9,0,0,1-5.21,1.46c-5.15,0-11.17-3.05-15.56-5.27L162.34.38,161.57,0h-2.73l3,1.46Z" fill="#5d5d5d"/><path d="M174.94,1058.4a9.46,9.46,0,0,0-.84-8c-3.52-5.44-13-6.83-20-7.84-1.16-.17-2.24-.33-3.18-.49-.31,0-.84-.16-1.54-.3-3.63-.73-11.18-2.25-16.85-2.25-3.38,0-5.54.55-6.6,1.66a2.72,2.72,0,0,0-.75,2.06c.34,6.2,9.85,10,15.53,12.31.89.35,1.69.67,2.35,1,1.54.67,3.27,1.53,5.1,2.45,5.87,2.91,12.51,6.22,18.2,6.22a12.85,12.85,0,0,0,2.1-.17C171.69,1064.45,173.86,1062.23,174.94,1058.4Zm-6.68,5.22a11.07,11.07,0,0,1-1.87.15c-5.36,0-11.85-3.23-17.58-6.07-1.85-.92-3.6-1.79-5.17-2.48-.67-.29-1.48-.62-2.38-1-5.38-2.16-14.38-5.78-14.66-11.1a1.29,1.29,0,0,1,.36-1c.54-.56,1.94-1.23,5.6-1.23,5.53,0,13,1.5,16.58,2.22.71.14,1.25.25,1.58.3.95.17,2,.33,3.21.5,6.3.92,15.83,2.31,19,7.22,1.23,1.9,1.45,4.16.67,6.9C172.67,1061.34,170.92,1063.17,168.26,1063.62Z" fill="#5d5d5d"/><path d="M221.7,1026.32c1.15-7.06,2.33-14.36-2.33-19.9-5.56-6.62-14.64-7.09-22.65-7.5l-.83,0c-2.84-.15-6.07-.32-9.17-.61C152.46,995,123,987,93.94,973.15c-9.15-4.36-18.13-9.34-26.82-14.16-4.77-2.64-9.71-5.38-14.62-8l-.33-.18c-5.76-3.05-11.71-6.22-17.84-6.22a15.93,15.93,0,0,0-8.92,2.68c-9.77,6.36-14.45,18.7-19,30.63A136.87,136.87,0,0,1,0,993v1.5a122.1,122.1,0,0,0,7.09-16.27c4.5-11.83,9.14-24,18.72-30.28a15.14,15.14,0,0,1,8.52-2.57c6,0,11.82,3.12,17.5,6.14l.33.17c4.91,2.61,9.84,5.34,14.61,8,8.7,4.82,17.69,9.81,26.86,14.18,29.12,13.91,58.68,21.91,93,25.18,3.12.3,6.35.47,9.21.62l.82,0c7.87.4,16.78.86,22.14,7.24,4.45,5.29,3.29,12.43,2.17,19.32-.36,2.22-.69,4.31-.86,6.38-.65,8-1.31,16.35-.4,23.85a187.92,187.92,0,0,0,4.65,23.57h.75a187.57,187.57,0,0,1-4.69-23.66c-.9-7.43-.24-15.7.41-23.73C221,1030.6,221.35,1028.52,221.7,1026.32Z" fill="#5d5d5d"/><path d="M43.66,507.76c6.24-17.53,0-24.57-28.29-43.28-2.24-1.48-4.5-3-6.8-4.54-3-2-5.78-3.92-8.57-5.83V455c2.66,1.82,5.35,3.65,8.19,5.57,2.28,1.54,4.54,3,6.78,4.52,27.88,18.46,34.08,25.38,28,42.44-5.5,15.45-16.13,28.53-27.39,42.39C10.35,556.36,5,562.94,0,570v1.25c5.16-7.33,10.71-14.17,16.15-20.86C27.45,536.46,38.12,523.33,43.66,507.76Z" fill="#5d5d5d"/><path d="M189.81,1016.88c-7.59-3.31-15.86-4.1-23.87-4.87a133,133,0,0,1-13.77-1.8,281.87,281.87,0,0,1-65.47-21.9c-9.6-4.58-18.8-9.68-27.72-14.62-1.27-.7-2.74-1.64-4.29-2.64-5.15-3.28-11.55-7.37-17.28-7.37a9.73,9.73,0,0,0-5.7,1.74c-4.38,3.06-6.44,9.22-8.26,14.66-.45,1.36-.88,2.64-1.33,3.81a71.06,71.06,0,0,1-4,7.86c-4,7.24-9,16.25-7.17,21.67s8.94,8.47,14.67,10.88c1.3.54,2.52,1.06,3.57,1.56a197.67,197.67,0,0,1,25.91,14.57A737.68,737.68,0,0,0,122.23,1080h1.54a739.85,739.85,0,0,1-68.24-40.17,198.7,198.7,0,0,0-26-14.62c-1.06-.51-2.3-1-3.6-1.57-5.6-2.36-12.56-5.28-14.26-10.44s3.19-14,7.11-21.1a72.82,72.82,0,0,0,4-8c.45-1.19.88-2.47,1.33-3.84,1.79-5.33,3.81-11.38,8-14.3a9.07,9.07,0,0,1,5.29-1.61c5.52,0,11.82,4,16.89,7.26,1.56,1,3,2,4.35,2.67,8.91,4.94,18.12,10,27.74,14.63a283,283,0,0,0,65.63,22,135.62,135.62,0,0,0,13.85,1.81c7.95.76,16.17,1.55,23.65,4.81,13.21,5.76,13.16,17,13.1,29a96.89,96.89,0,0,0,.43,11.93,188.19,188.19,0,0,0,4,21.55h.74a189.31,189.31,0,0,1-4.06-21.64,97.19,97.19,0,0,1-.42-11.84C203.4,1034.34,203.45,1022.83,189.81,1016.88Z" fill="#5d5d5d"/><path d="M157.63,1078.07c-35.57-17.42-67.58-35.53-92.58-52.37a104.78,104.78,0,0,0-10.32-5.85c-4.77-2.47-9.71-5-13.9-8.56-5.7-4.83-7.16-9.58-4.75-15.4,1.88-4.57,5.07-6.78,9.73-6.78,7.77,0,18.12,6.29,25.67,10.89,3,1.81,5.56,3.38,7.57,4.34a299.55,299.55,0,0,0,69.59,23.28,149.37,149.37,0,0,0,15.61,2.07l2.68.23c6,.47,12.87,1,16.93,5.5s4.47,13.58,4.78,20.89c.09,2,.17,3.93.32,5.6l.09.91c.44,4.81,1.09,12-.63,17.18h1.26c1.65-5.43,1-12.49.56-17.29l-.08-.91c-.15-1.64-.23-3.54-.32-5.54-.32-7.5-.72-16.84-5.09-21.65s-11.47-5.39-17.72-5.89l-2.67-.22a146.28,146.28,0,0,1-15.48-2.06,298.77,298.77,0,0,1-69.32-23.18c-2-.94-4.5-2.49-7.45-4.29-7.68-4.67-18.2-11.06-26.3-11.06-5.13,0-8.78,2.53-10.84,7.52-2.61,6.3-1,11.63,5.08,16.77,4.3,3.64,9.3,6.22,14.13,8.72a102.84,102.84,0,0,1,10.2,5.77c25,16.88,57.11,35,92.72,52.46l1.74.85h2.73Z" fill="#5d5d5d"/><path d="M233,598.24h-.16c-3.41,0-6.86,4.33-9.39,7.49-.54.69-1,1.3-1.45,1.78-2.38,2.71-4.67,5.58-6.89,8.34-1.43,1.79-2.86,3.58-4.33,5.34l-.18.21c-4.79,5.69-6.74,9.39-6,11.32a2.25,2.25,0,0,0,2,1.34,3.64,3.64,0,0,0,.57,0h.12c9.61-.21,17.38-8.91,21.16-14.07,3.6-4.93,6.18-10.24,7.08-14.59.21-1,.79-4.45-.57-6.19A2.59,2.59,0,0,0,233,598.24Zm1.42,7c-.87,4.18-3.37,9.33-6.87,14.12-3.65,5-11.13,13.38-20.23,13.58l-.09.6v-.6a3.11,3.11,0,0,1-.43,0c-.86-.1-1-.47-1.06-.59-.26-.66-.23-3,5.78-10.1l.18-.22c1.47-1.77,2.91-3.56,4.35-5.36,2.2-2.75,4.49-5.6,6.85-8.3.43-.49.93-1.12,1.49-1.82,2.24-2.8,5.61-7,8.56-7h0A1.37,1.37,0,0,1,234,600C234.86,601,234.73,603.45,234.38,605.19Z" fill="#5d5d5d"/><path d="M486.16,841.36c31.85-3.62,66-40.51,66.44-71.75.68-47.9-26.87-86.17-53.51-123.18-4.52-6.29-9.2-12.79-13.61-19.17l-2.66-3.83c-12.53-18.06-26.74-38.52-31.36-60.63-3.91-18.75-9.89-62.34-3.38-77.41,4.77-11,18.36-17.35,31.5-23.45,9.07-4.22,17.64-8.21,23.66-13.66l.28-.26c20.6-18.66,20.6-18.66,34.64-19.13,4.25-.15,9.53-.33,17-1a125.31,125.31,0,0,0,20.23-3.46,28.92,28.92,0,0,1,6.49-1.17c4.33,0,7.94,3.06,19.92,13.2,35.41,30,34.74,82.11,34.1,132.53-.82,63.44-1.65,129,70.14,149.81a107.86,107.86,0,0,0,29.88,4.5c27,0,50-12.06,66.47-34.87,24.19-33.47,30.61-85.71,16-130C784.61,456.21,703.91,397.77,617.12,342.1c-78.88-50.61-154-64.56-218.24-73.66a94.2,94.2,0,0,0-13.15-1c-26.05,0-38.43,13.25-54.1,30a278.94,278.94,0,0,1-19.93,19.84c-8.82,7.76-20.05,13.07-30.91,18.2-17.71,8.37-34.44,16.28-41.35,33.87-14.67,37.32,21.37,66.4,53.16,92.05,14.71,11.88,28.62,23.1,36.76,34.3,32.29,44.46,22.63,119.42-6.65,161.53-9.14,13.14-26.66,29.4-45.21,46.62-30.72,28.51-65.54,60.83-71.68,88-2.9,12.77-2.14,21.68,2.31,27.25,3.71,4.65,10,6.91,19.14,6.91,15.08,0,36.69-6.22,59.58-12.8,28-8.05,59.65-17.17,86.69-17.17,12.88,0,23.55,2,32.61,6.13,10.42,4.74,19.24,11.6,27.77,18.24,14.08,10.94,27.38,21.28,46.19,21.28A54,54,0,0,0,486.16,841.36ZM406.65,801.1c-9.22-4.2-20-6.24-33.11-6.24-27.21,0-59,9.14-87,17.21-22.79,6.56-44.33,12.75-59.24,12.76-8.78,0-14.74-2.12-18.21-6.46-4.2-5.26-4.88-13.84-2.08-26.24,6.07-26.79,40.75-59,71.34-87.37,18.59-17.26,36.16-33.57,45.37-46.82,29.52-42.45,39.23-118,6.64-162.91-8.24-11.34-22.2-22.6-37-34.53-31.47-25.4-67.14-54.18-52.79-90.68,6.74-17.14,23.26-24.95,40.75-33.22,10.93-5.17,22.24-10.52,31.19-18.39a276.8,276.8,0,0,0,20-19.92c15.48-16.56,27.7-29.64,53.23-29.64a93.31,93.31,0,0,1,13,1c64.1,9.08,139.08,23,217.77,73.47C703.08,398.66,783.6,457,817.23,558.79c14.51,43.93,8.15,95.74-15.83,128.91-16.25,22.48-38.9,34.37-65.49,34.37a106.6,106.6,0,0,1-29.55-4.45c-31.81-9.2-51.93-28.1-61.52-57.77-8.58-26.58-8.16-59.26-7.75-90.88.64-50.69,1.31-103.11-34.53-133.45C585.44,421,585,420.79,575.09,423.23A122.91,122.91,0,0,1,555,426.66c-7.42.7-12.69.88-16.92,1-14.48.49-14.48.49-35.4,19.44l-.28.26c-5.89,5.33-14.38,9.28-23.37,13.46-13.34,6.2-27.14,12.61-32.09,24.06-6.63,15.34-.63,59.26,3.31,78.13,4.66,22.35,18.95,42.92,31.55,61.07l2.65,3.83c4.42,6.4,9.1,12.9,13.63,19.19,26.53,36.85,54,75,53.28,122.46-.44,30.74-34,67-65.37,70.58a54.39,54.39,0,0,1-5.92.34c-18.4,0-31.54-10.22-45.45-21C426.07,812.8,417.19,805.9,406.65,801.1Z" fill="#5d5d5d"/><path d="M1080,5.14q-5.41-2.77-11-5.14H1067q6.63,2.69,13,6Z" fill="#5d5d5d"/><path d="M1047.34,471.8c-1.21-.89-3.1-2.53-5.48-4.61-9.13-8-24.42-21.29-35.19-21.29-4.21,0-7.36,2.05-9.36,6.07-2.5,5,3,16.76,6.65,24.5.89,1.9,1.66,3.53,2.14,4.71,1,2.42,1.88,4.64,2.64,6.63,5.1,13.33,10.37,27.12,14.28,42.09.41,1.56.8,3.32,1.22,5.19,1.79,8,4,17.92,9.54,22.78a16.94,16.94,0,0,0,6.2,3.73,9.44,9.44,0,0,0,2.68.41c6.53,0,11-7.42,15.36-14.59,1-1.64,2-3.33,3-4.88l1-1.47c16.54-25.19,26.52-40.39-3.88-61.5C1055.18,477.52,1051.34,474.72,1047.34,471.8ZM1061,540.41l-1,1.47c-1,1.57-2.06,3.27-3.06,4.92-4.17,6.89-8.48,14-14.33,14a8.34,8.34,0,0,1-2.33-.35,16.08,16.08,0,0,1-5.76-3.49c-5.23-4.61-7.41-14.33-9.16-22.14-.42-1.89-.82-3.66-1.23-5.24-3.92-15-9.21-28.84-14.32-42.21-.76-2-1.67-4.22-2.65-6.65-.49-1.21-1.27-2.86-2.17-4.77-3.33-7.08-8.89-18.92-6.65-23.45,1.8-3.64,4.51-5.41,8.28-5.41,10.32,0,25.4,13.14,34.4,21,2.41,2.09,4.31,3.75,5.56,4.67,4,2.92,7.85,5.72,10.82,7.79C1086.9,501,1077.15,515.83,1061,540.41Z" fill="#5d5d5d"/><path d="M1067,444.85c-5.29-3.86-10.58-8.18-16.18-12.75-17.1-14-36.49-29.79-53.91-29.79a27.72,27.72,0,0,0-10,1.84c-30.77,11.63-26.36,44.17-21,62.53,3.28,11.22,7.52,22.31,11.62,33,4.78,12.51,9.72,25.44,13.16,38.62,2.08,7.95,3.12,16.32,4.13,24.42,3.1,24.83,6,48.28,39.14,48.28,2.63,0,5.45-.15,8.41-.44a45.49,45.49,0,0,0,9.5-1.81c8.81-2.83,11.45-8.18,15.43-16.26,1.21-2.45,2.58-5.22,4.27-8.2,2.6-4.58,5.43-8.92,8.38-13.11V570a165.77,165.77,0,0,0-9,14c-1.7,3-3.07,5.79-4.28,8.24-3.91,7.92-6.49,13.15-15,15.9a45.36,45.36,0,0,1-9.35,1.78c-2.93.28-5.74.43-8.34.43-32.48,0-35.23-22.08-38.42-47.65-1-8.12-2.06-16.52-4.15-24.52C988,524.94,983,512,978.25,499.46c-4.09-10.71-8.33-21.79-11.6-33-5.3-18.13-9.68-50.23,20.55-61.66a27,27,0,0,1,9.72-1.79c17.17,0,36.45,15.74,53.46,29.63,5.6,4.58,10.9,8.9,16.2,12.77,4,2.93,7.53,5.5,10.17,7.33L1080,455v-.88l-2.84-1.94C1074.53,450.34,1071,447.77,1067,444.85Z" fill="#5d5d5d"/><path d="M1048.05,981c-10.56,16.43-23,32.21-32.72,44.12-.54.65-1.12,1.34-1.72,2-4.31,5.07-9.69,11.37-5.89,17.7,3.67,6.14,14.16,7.37,21.82,8.27,1.38.17,2.68.32,3.78.48a177.4,177.4,0,0,1,46.68,13.74v-.79a177.86,177.86,0,0,0-46.57-13.66c-1.11-.17-2.42-.32-3.8-.48-7.52-.89-17.8-2.1-21.29-7.93s1.65-12,5.82-16.86c.6-.71,1.19-1.4,1.72-2.06,9.71-11.92,22.2-27.72,32.77-44.18,9.39-14.6,16-29.72,23-45.73a76.44,76.44,0,0,1,8.3-14.49V920a75.86,75.86,0,0,0-9,15.4C1064,951.36,1057.4,966.45,1048.05,981Z" fill="#5d5d5d"/><path d="M791.27,12.65c3.75,12.66,30.55,19.67,47.64,19.67,24.39,0,50-4.81,77-9.9C943.26,17.29,971.52,12,999,12c30.13,0,55.44,6.45,77.37,19.73l3.61,2.19v-1.4l-3-1.82c-22.12-13.39-47.63-19.9-78-19.9-27.61,0-55.93,5.33-83.31,10.47-27,5.08-52.52,9.88-76.8,9.88-17.08,0-43-7.16-46.49-18.81-1.15-3.91.25-8,4.16-12.31H795C791.33,4.34,790.07,8.57,791.27,12.65Z" fill="#5d5d5d"/><path d="M993.71,95.84c-3.15,0-6.22,0-9.23,0s-5.76,0-8.57,0c-16.36,0-29.38.87-43.75,5.23-7.51,2.28-14.54,5.87-21.35,9.33-11.36,5.79-22.09,11.25-34.93,11.25a46.2,46.2,0,0,1-6.42-.46c-9.47-1.37-16.56-7-23.42-12.36-7.71-6.07-15-11.8-25.22-11.8-.92,0-1.87,0-2.82.14-6.3.65-16.4,6.32-26.15,11.81-6.28,3.52-12.21,6.86-16.41,8.41a114.85,114.85,0,0,1-14.05,4.14c-10.08,2.4-11.36,3.28-16.26,21.86-1.35,5.13-2.34,9.93-3.29,14.57-3.53,17.23-6.31,30.84-24.68,43.83-12.39,8.75-28.11,13-48.07,13-19.77,0-40.44-4.14-58.67-7.79-9.54-1.91-18.55-3.72-25.24-4.43-3.89-.42-9.88-.66-16-.66-17.62,0-38.26,6.45-39.7,15.7-.68,4.38,2.74,11,22.94,17.42l2.25.72c77,24.69,130.65,56.91,185.28,111.2,15.07,15,26.58,22,36.23,22a18.69,18.69,0,0,0,6.58-1.19c10.25-3.82,17.72-16.75,26.37-31.73,4.47-7.73,9.53-16.5,15.52-24.93,29-40.85,70.58-70.7,117.13-84.05A145,145,0,0,1,981.6,221c41.45,0,70.7,20.29,98.4,41.18v-1.5c-27.64-20.81-56.92-40.88-98.4-40.88a146.17,146.17,0,0,0-40.17,6c-46.81,13.43-88.64,43.44-117.78,84.51-6,8.48-11.1,17.27-15.58,25-8.53,14.77-15.91,27.53-25.75,31.21a17.67,17.67,0,0,1-6.16,1.11c-9.31,0-20.55-6.87-35.38-21.61C686,291.58,632.18,259.28,555,234.53l-2.25-.72c-15.12-4.84-23-10.55-22.11-16.09C531.85,210,550.2,203,569.16,203c6.1,0,12.05.24,15.9.65,6.63.71,15.61,2.51,25.12,4.41,18.29,3.67,39,7.82,58.91,7.82,20.21,0,36.16-4.33,48.77-13.23,18.75-13.27,21.57-27.08,25.16-44.57.94-4.62,1.92-9.41,3.27-14.51,4.88-18.5,5.88-18.74,15.38-21a113.76,113.76,0,0,0,14.18-4.18c4.29-1.58,10.26-4.94,16.58-8.49,9.21-5.17,19.64-11,25.69-11.65a24.8,24.8,0,0,1,2.7-.14c9.81,0,16.93,5.61,24.47,11.54,7,5.5,14.21,11.19,24,12.6a45.76,45.76,0,0,0,6.59.48c13.13,0,24.49-5.78,35.48-11.38,6.75-3.44,13.74-7,21.15-9.25,14.22-4.31,27.15-5.18,43.4-5.18,2.81,0,5.65,0,8.56,0s6.09.05,9.24.05a144.33,144.33,0,0,1,40.11,5.23A302.9,302.9,0,0,1,1080,120.19v-1.33a302.68,302.68,0,0,0-45.85-17.74A145.52,145.52,0,0,0,993.71,95.84Z" fill="#5d5d5d"/><path d="M1054,1000.64c-7.77,9.33-16.58,19.9-16.16,30,.32,7.8,7.87,9.12,14.54,10.28,1.6.28,3.12.54,4.55.88a164.84,164.84,0,0,1,23.07,7.83v-.78a163.78,163.78,0,0,0-22.91-7.74c-1.45-.35-3-.62-4.59-.9-6.71-1.17-13.64-2.38-13.94-9.6-.41-9.85,8.31-20.31,16-29.54a116,116,0,0,0,8.24-10.63A255.36,255.36,0,0,0,1080,958.28v-1.73a259.47,259.47,0,0,1-17.82,33.53A116.62,116.62,0,0,1,1054,1000.64Z" fill="#5d5d5d"/><path d="M1067.59,466c-2.79-1.93-6.55-4.67-10.49-7.55-5.65-4.12-11.09-8.57-16.89-13.3-1.31-1.07-2.73-2.28-4.25-3.56-9.67-8.21-22.91-19.44-35.1-19.44a17.41,17.41,0,0,0-9.27,2.6c-21.06,13-8.4,44.13-.83,62.72.92,2.26,1.79,4.4,2.51,6.28,4.94,12.93,10.05,26.29,13.73,40.37.69,2.65,1.38,5.76,2.12,9,3.35,15.08,8,35.74,19.5,43.18a14.7,14.7,0,0,0,6,2.28,14.4,14.4,0,0,0,1.86.12c14.12,0,28.19-21.44,38.46-37.09,1.87-2.84,3.56-5.4,5.11-7.64v-1.25c-1.71,2.42-3.6,5.29-5.71,8.49-10.18,15.52-24.13,36.77-37.86,36.77a13.16,13.16,0,0,1-1.77-.12,14,14,0,0,1-5.66-2.17c-11.29-7.28-15.85-27.77-19.18-42.73-.73-3.29-1.43-6.41-2.12-9.07-3.69-14.12-8.81-27.5-13.76-40.45-.72-1.89-1.59-4-2.51-6.3-7.48-18.37-20-49.12.54-61.83a16.7,16.7,0,0,1,8.89-2.49c11.93,0,25.05,11.13,34.64,19.26,1.52,1.3,2.94,2.5,4.28,3.6,5.78,4.71,11.23,9.17,16.9,13.3,3.94,2.88,7.7,5.62,10.5,7.56,3.74,2.6,7.53,5.16,11.57,7.89l1.25.84v-.86l-.88-.59C1075.11,471.12,1071.33,468.56,1067.59,466Z" fill="#5d5d5d"/><path d="M942.83,636.3c1.36,1.77,3.91,4.2,10.33,4.73,24,2,60.23,4.92,90.85,32.81l.35.31a106,106,0,0,1,25.25,36c1.75,3.94,4.57,6.21,7.76,6.21a6.88,6.88,0,0,0,2.63-.54v-.86a6.23,6.23,0,0,1-2.63.68c-2.89,0-5.47-2.11-7.09-5.78a106.94,106.94,0,0,0-25.44-36.2l-.35-.31c-30.79-28-67.19-31-91.27-33-6.13-.5-8.54-2.78-9.82-4.45-3-4-3.44-10.16-3.09-12.05,3.34-14.69,7.49-33,5.93-53-2.63-33.87-16.17-63-29.26-91.12-10.51-22.59-22.43-48.19-18.29-59.86,7.36-20.77,37.46-50.55,50-62.38A40.08,40.08,0,0,1,977,346.13a49.05,49.05,0,0,1,14.83,2.38c22.07,7.11,53.33,23.42,88.17,45.81v-.85c-34.74-22.3-65.91-38.54-88-45.65a50,50,0,0,0-15-2.41,40.8,40.8,0,0,0-28.75,11.53c-12.64,11.87-42.82,41.75-50.24,62.67-4.23,11.95,7.74,37.69,18.31,60.41,13.07,28.08,26.58,57.12,29.2,90.86,1.55,19.9-2.59,38.12-5.92,52.8C939.23,625.66,939.64,632.12,942.83,636.3Z" fill="#5d5d5d"/><path d="M1077.87,996.71c-3.87,6.33-8.25,13.5-7.2,21.32s4.55,11,9.33,13.38v-.81c-4.51-2.33-7.64-5.47-8.62-12.67-1-7.56,3.3-14.62,7.1-20.85l.72-1.18c.28-.46.53-1,.8-1.46v-1.5c-.46.88-.92,1.77-1.41,2.59Z" fill="#5d5d5d"/><path d="M765.1,37.23c20.71,13,44.86,19.33,73.81,19.33,26.64,0,54.53-5.24,81.5-10.31,26.24-4.94,53.38-10,78.61-10,25.58,0,46.78,5.31,64.82,16.22l9.9,6,6.26,3.81v-2L1074.61,57l-9.9-6c-18.3-11.08-39.79-16.47-65.69-16.47-25.38,0-52.6,5.12-78.92,10.07-26.89,5-54.7,10.28-81.19,10.28-28.63,0-52.48-6.24-72.91-19.07-13.73-8.62-20.35-17.68-19.7-26.93A21.13,21.13,0,0,1,749.15,0h-1.88a22.24,22.24,0,0,0-2.64,8.76C743.92,18.68,750.81,28.25,765.1,37.23Z" fill="#5d5d5d"/><path d="M988,614.54c5.47,3,13,4.27,20.22,5.51,5.37.91,10.92,1.85,15.45,3.48a98.93,98.93,0,0,1,9.34,4.23c6.89,3.4,14.69,7.24,21.79,7.24a17.87,17.87,0,0,0,3.93-.42l1-.26c10.17-3,15.61-15.79,20.28-27.51v-1.95a1.8,1.8,0,0,0-.08.21c-4.76,11.95-10.14,25.5-20.41,28.56-.3.09-.62.17-.93.24a17,17,0,0,1-3.77.41c-6.93,0-14.66-3.8-21.47-7.16a95.8,95.8,0,0,0-9.42-4.26c-4.58-1.66-10.17-2.61-15.57-3.52-7.19-1.23-14.63-2.49-20-5.43-11.85-6.5-10.62-18.4-9.31-31a82.38,82.38,0,0,0,.68-14.69c-3.1-39.94-17.93-71.82-32.28-102.66a53.55,53.55,0,0,1-1.34-43.21c6.11-15,18.92-27.11,35.15-33.24a44.21,44.21,0,0,1,15.66-2.88c23.16,0,44.9,17.75,64.08,33.42,5.44,4.43,10.57,8.62,15.49,12.22l3.51,2.56v-.9l-3.09-2.25c-4.9-3.58-10-7.76-15.45-12.19-19.28-15.74-41.13-33.58-64.54-33.58A44.86,44.86,0,0,0,981,388.43c-16.42,6.2-29.38,18.47-35.57,33.65a54.26,54.26,0,0,0,1.36,43.78c14.32,30.78,29.13,62.61,32.22,102.41a83.94,83.94,0,0,1-.68,14.56C977.06,595.12,975.74,607.81,988,614.54Z" fill="#5d5d5d"/><path d="M993.71,120.08c-20.18,0-41.65,3.66-64.41,7.54-25.61,4.37-52.09,8.89-80.3,8.89-2,0-4,0-6-.07a145.33,145.33,0,0,1-25.43-3.27c-6.33-1.23-11.8-2.3-17.05-2.3-12.47,0-21.64,6.57-31.65,22.67-4.82,7.76-8.34,17-11.75,26-6,15.86-12.25,32.27-26,42-4.74,3.35-13.81,5.93-23.41,8.68-16.77,4.78-35.79,10.21-38.37,21.54-3.22,14.2,25.95,33.63,41.63,44.07,2.91,1.95,5.43,3.62,7.09,4.83,18.37,13.49,33.57,22.47,48,22.47a33.32,33.32,0,0,0,5.85-.52c11.53-2.07,22-10.22,32.94-25.65,32.16-45.32,78.4-78.46,130.21-93.32a169,169,0,0,1,46.53-6.88c41.41,0,72.05,16.72,98.4,35.35v-.88c-26.35-18.58-57-35.19-98.4-35.19a169.93,169.93,0,0,0-46.72,6.9c-52,14.91-98.36,48.15-130.61,93.61-10.83,15.26-21.15,23.32-32.47,25.35a33.08,33.08,0,0,1-5.73.5c-14.25,0-29.34-8.92-47.6-22.32-1.66-1.22-4.19-2.9-7.11-4.85-15.53-10.34-44.44-29.59-41.33-43.31,2.49-10.91,21.29-16.28,37.87-21,9.66-2.76,18.79-5.37,23.63-8.78,13.94-9.85,20.21-26.36,26.27-42.33,3.4-8.93,6.9-18.17,11.69-25.87,9.86-15.86,18.85-22.33,31-22.33,5.18,0,10.62,1.06,16.92,2.29,7.35,1.43,15.69,3.05,25.54,3.28,2,.05,4,.07,6,.07,28.27,0,54.78-4.52,80.46-8.9,22.7-3.87,44.13-7.53,64.25-7.53a121.25,121.25,0,0,1,33.59,4.32c17.44,5,34.9,12.58,52.7,21.49v-.8c-17.73-8.86-35.12-16.42-52.5-21.38A121.56,121.56,0,0,0,993.71,120.08Z" fill="#5d5d5d"/><path d="M972.47,627.47c4.91,1.23,9.7,2.34,14.34,3.42,25.09,5.82,46.77,10.85,68.44,30.46l.43.4c5,4.51,8.91,6.7,12,6.7a6.48,6.48,0,0,0,1.41-.16c4.71-1.09,7.06-7.66,9.63-16.13.4-1.31.84-2.62,1.26-3.92v-2.37c-.67,2-1.33,4-2,6.08-2.51,8.25-4.77,14.64-9.1,15.64-3.12.73-7.23-1.35-12.79-6.38l-.43-.39c-21.81-19.75-43.57-24.79-68.76-30.63-4.63-1.08-9.42-2.19-14.33-3.42-17.6-4.41-14.62-21-11.74-37,1.26-7,2.56-14.22,2.09-20.28-2.87-36.89-17-67.39-30.78-96.9-1.64-3.52-3.4-7-5.1-10.3-8.82-17.3-16.43-32.23-5.55-50.62,8.2-13.83,20.47-25.15,32.34-36.1q3.21-3,6.36-5.9c4.58-4.3,10.82-6.49,18.53-6.49,29.57,0,75,31.47,101.21,50.43v-.89c-26.29-19-71.58-50.25-101.21-50.25-7.9,0-14.3,2.24-19,6.67-2.09,2-4.22,3.93-6.36,5.9-11.91,11-24.22,22.34-32.46,36.26-11.09,18.73-3,34.56,5.52,51.32,1.7,3.32,3.45,6.77,5.09,10.29,13.7,29.44,27.86,59.88,30.71,96.64.46,6-.83,13.15-2.08,20.09C957.25,606,954.22,622.89,972.47,627.47Z" fill="#5d5d5d"/><path d="M467.4,973.1c-6.06,9.16-13.62,20.56-11,28.43,1.07,3.21,3.74,5.61,8,7.12a7.6,7.6,0,0,0,2.61.43c9.27,0,24-14.32,36.9-27,8.25-8,16-15.64,20.71-17.76,22.38-10.14,53.23-15,80.45-19.23,10.74-1.69,20.89-3.27,30.26-5.11a320.89,320.89,0,0,1,61.29-6.31c63.21,0,116.28,22.75,157.75,67.61,4.65,5,11.41,7.58,20.1,7.58,27.08,0,73.51-26.36,106.21-75.2,19.57-29.21,48-88.93,18.43-160.68-11.84-28.75-29.43-42.15-55.37-42.15-19.73,0-42.24,7.26-68.3,15.66-32.08,10.34-68.43,22.05-107.54,22.05a177.49,177.49,0,0,1-85.5-21.46c-83.51-44.54-85.94-125.78-78.74-191.59,2.81-25.59-1.74-45.84-13.15-58.57-8.06-9-19-13.75-31.76-13.75-24.1,0-54.17,18.71-65,54.46-10.22,33.65,14,64.24,42,99.66,31.6,39.94,67.41,85.21,60.46,145.62-3.44,29.94-14.38,58.68-29.25,76.87-11.28,13.8-21.25,15-31.8,16.32-8.06,1-16.39,2-26.16,8.22-7.46,4.72-9.8,12.78-12.28,21.31-1.71,5.88-3.47,12-7.06,16.93-2,2.74-5.39,3.33-9,4-4.78.83-10.2,1.77-13.07,7.95-2,4.3.64,9.36,3.19,14.25,2.13,4.08,4.32,8.29,3.66,11.8C473.85,963.38,470.86,967.89,467.4,973.1Zm4.54-25c-2.51-4.81-4.88-9.35-3.16-13,2.56-5.52,7.38-6.36,12-7.17,3.74-.65,7.6-1.32,9.9-4.5,3.73-5.18,5.53-11.37,7.27-17.36,2.41-8.28,4.68-16.09,11.69-20.54,9.51-6,17.68-7,25.59-8,10.84-1.33,21.07-2.59,32.7-16.81,15-18.39,26.08-47.4,29.56-77.59,7-61-29-106.49-60.75-146.64C509,601.37,485,571,495,538.08c10.65-35.11,40.1-53.47,63.69-53.47,12.31,0,22.94,4.59,30.73,13.28,11.14,12.43,15.57,32.31,12.81,57.5-7.26,66.24-4.78,148,79.46,193A178.86,178.86,0,0,0,767.85,770c39.33,0,75.79-11.76,108-22.12,26-8.37,48.36-15.59,67.88-15.59,25.65,0,42.34,12.73,54.09,41.29,29.3,71.15,1.11,130.4-18.3,159.38-31.26,46.69-78,74.58-105.06,74.58-8.28,0-14.71-2.4-19.08-7.13-41.74-45.15-95.16-68-158.77-68A322.15,322.15,0,0,0,635,938.67c-9.34,1.83-19.48,3.42-30.21,5.1-27.3,4.27-58.25,9.12-80.8,19.34-4.9,2.22-12.41,9.55-21.1,18-12.77,12.45-27.23,26.56-35.94,26.56a6.32,6.32,0,0,1-2.14-.35c-3.85-1.38-6.18-3.43-7.12-6.26-2.39-7.23,4.95-18.32,10.86-27.22,3.54-5.35,6.6-10,7.17-13C476.48,956.85,474.17,952.42,471.94,948.13Z" fill="#5d5d5d"/><path d="M318.4,977.06c10.83-9.78,28-18.37,47.8-28.3,13.86-6.94,32.46-24,31.35-37.92-.6-7.62-6.73-13.31-18.2-16.93a49.78,49.78,0,0,0-15.1-2.11c-14.7,0-31.25,4.87-45.84,9.18-6.67,2-13,3.82-18.72,5.12-48.29,11-77.45,17.59-103.57,17.59-23.13,0-43.42-5.18-70-17.89-25.6-12.22-44.13-23.7-59-32.93-21.92-13.59-32.16-19.59-45.13-19.59-6,0-13.27,1.35-21.94,4.11v1.26c8.69-2.79,15.93-4.17,21.94-4.17,12.64,0,22.78,5.95,44.52,19.42,14.91,9.23,33.48,20.73,59.13,33,26.77,12.78,47.21,18,70.53,18,26.26,0,55.46-6.63,103.84-17.61,5.78-1.32,12.1-3.18,18.79-5.15,14.52-4.28,31-9.13,45.5-9.13a48.71,48.71,0,0,1,14.74,2c11,3.46,16.8,8.8,17.37,15.89,1.07,13.41-17.14,30-30.69,36.75-19.92,10-37.13,18.59-48.07,28.48-33,29.86-27.7,68.84-17.68,103.83h1.25C291.19,1045.26,285.8,1006.54,318.4,977.06Z" fill="#5d5d5d"/><path d="M1047.47,809.31c3.08,2,8.09,3.05,14.1,3.05a64.4,64.4,0,0,0,18.43-2.94v-1.76a62.75,62.75,0,0,1-18.43,3c-5.61,0-10.42-1-13.2-2.79-14.1-9-20.33-24.9-26.93-41.73-5.69-14.53-11.58-29.55-23-40.13l0-.5-.5,0c-13.14-11.6-30.85-17.23-54.13-17.23-22.69,0-46.57,5.45-65.76,9.82-13.11,3-24.43,5.58-31.72,5.58-4.28,0-6.89-.88-8-2.69-1.43-2.42-.35-6.93,3.21-13.43,16.58-30.28,50.07-102.47,47.75-132.35-1.83-23.57-13.16-47.92-24.11-71.46-15.86-34.09-32.27-69.35-20.33-103,13.63-38.42,73.65-107.1,116.37-112.93a61.12,61.12,0,0,1,8-.51c27.78,0,68.42,16.56,110.79,40.54v-1.8c-42.38-23.92-83-40.42-110.79-40.42a61.17,61.17,0,0,0-8.22.53c-43.25,5.9-104,75.25-117.72,114-12.17,34.33,4.38,69.9,20.39,104.3,10.89,23.41,22.15,47.61,24,70.88,2.07,26.64-27.16,94.17-47.56,131.42-4,7.25-5,12-3.17,15.08,1.4,2.37,4.47,3.52,9.4,3.52,7.47,0,18.88-2.6,32.09-5.62,19.11-4.36,42.89-9.78,65.39-9.78,23,0,40.42,5.57,53.27,17h0c11.31,10.33,17.17,25.28,22.84,39.74C1026.58,783.86,1032.91,800,1047.47,809.31Z" fill="#5d5d5d"/><path d="M1033.46,918.88c-6.34,14.46-12.33,28.11-19.93,39.93-44.24,68.79-93.56,80.39-145.77,92.66-4,.93-8.15,1.82-12.19,2.68-17.39,3.71-35.37,7.54-50,17A47.49,47.49,0,0,0,795,1080h1.57a49.76,49.76,0,0,1,9.61-7.8c14.48-9.38,32.35-13.19,49.63-16.87,4-.87,8.23-1.76,12.22-2.69,52.45-12.33,102-24,146.5-93.19,7.65-11.89,13.65-25.59,20-40.12,10.11-23,21.56-49.14,37.4-57.86,2.81-1.07,5.48-2,8-2.82v-1.26c-2.7.86-5.54,1.85-8.53,3C1055.2,869.34,1043.65,895.64,1033.46,918.88Z" fill="#5d5d5d"/><path d="M784,1054c28.3-12.61,53.89-18.63,78.64-24.45,49.72-11.69,92.66-21.78,132-82.91,6.63-10.3,12.27-23.16,18.25-36.78,12.48-28.46,25.39-57.89,49.36-70A169.28,169.28,0,0,1,1080,833.9v-1.72a169,169,0,0,0-18.61,6.11c-24.49,12.42-37.53,42.12-50.13,70.85-6,13.56-11.57,26.37-18.12,36.55-38.94,60.56-81.57,70.58-130.93,82.19-24.83,5.83-50.5,11.87-79,24.55-18.5,8.25-30.86,17.8-36,27.57h1.88C754.3,1070.86,766.25,1061.85,784,1054Z" fill="#5d5d5d"/><path d="M789.5,996.55c-4.45-14.07-23.93-24.57-57.88-31.22a354.14,354.14,0,0,0-67.92-6.6,369,369,0,0,0-100.45,14.19c-4.51,1.27-9,2.66-13.45,4.12-57.43,19.07-90.58,50.84-105.46,103h1.77c14.81-51.27,47.58-82.56,104.22-101.36,4.39-1.46,8.89-2.84,13.37-4.11a367.65,367.65,0,0,1,100-14.12A352.41,352.41,0,0,1,731.3,967c33.3,6.52,52.34,16.64,56.6,30.08,3.25,10.29-2.14,22.86-16,37.34-14.37,15-28.89,30.12-41.94,45.6h2.21c12.78-15.07,26.93-29.83,41-44.44C787.43,1020.6,793,1007.48,789.5,996.55Z" fill="#5d5d5d"/><path d="M656.36,863a6.36,6.36,0,0,0,3.13.82c4.27,0,8.46-4.16,12.16-7.84,2.14-2.13,4.17-4.14,5.82-4.93a14.25,14.25,0,0,1,6.17-1.54c3.81,0,7.05,1.82,10.8,3.93,1.34.76,2.73,1.54,4.22,2.27a23.72,23.72,0,0,0,10.7,2.63A43.76,43.76,0,0,0,720,856.67a53.16,53.16,0,0,1,12-2h.58c9.12,0,17.47,4.72,25.55,9.29s16.35,9.24,25.39,9.24a27.58,27.58,0,0,0,12.74-3.2,44.44,44.44,0,0,0,8.25-5.73c3.72-3.06,6.94-5.71,12.36-5.71a22.39,22.39,0,0,1,5.18.67c15.42,3.64,22.2,17.81,28.75,31.51,3.07,6.43,6.25,13.07,10.25,18.36,8,10.63,18.41,16.48,29.21,16.48h.56c10.83-.2,21.23-6.16,29.27-16.8C931,894.4,950.84,847.38,942.62,824c-2.42-6.91-7.09-11.28-13.88-13a27.63,27.63,0,0,0-6.78-.9c-7,0-12.26,3.14-18.33,6.77-1.36.81-2.78,1.66-4.27,2.5-12.3,7-24.51,8.41-37.43,9.93-5.07.6-10.31,1.22-15.62,2.2a88.71,88.71,0,0,0-16.37,5.14c-6.76,2.62-13.15,5.09-20.18,5.09a31.57,31.57,0,0,1-14.19-3.5c-9.88-4.86-20.67-9.36-32.57-9.36a50.21,50.21,0,0,0-11.83,1.43c-1.83.44-3.61.89-5.37,1.34-6.89,1.75-13.4,3.41-20,3.41a36.09,36.09,0,0,1-15.38-3.41l-2.12-1c-9.07-4.2-18.45-8.53-28-8.53a30.23,30.23,0,0,0-15,3.93c-6,3.33-14,17.36-14,27.13C651.28,857.81,653,861.22,656.36,863Zm9.53-35.93a29,29,0,0,1,14.38-3.78c9.32,0,18.58,4.28,27.54,8.42l2.12,1a37.33,37.33,0,0,0,15.88,3.51c6.74,0,13.32-1.68,20.28-3.45,1.76-.44,3.54-.9,5.36-1.34A49.47,49.47,0,0,1,763,830.06c11.66,0,22.29,4.44,32,9.24a32.78,32.78,0,0,0,14.72,3.62c7.25,0,13.74-2.51,20.62-5.18a88.29,88.29,0,0,1,16.15-5.07c5.27-1,10.49-1.59,15.54-2.19,13-1.53,25.37-3,37.89-10.07,1.49-.85,2.91-1.7,4.29-2.52,5.92-3.54,11-6.6,17.71-6.6a26.33,26.33,0,0,1,6.49.87c6.37,1.61,10.76,5.72,13,12.22,8.09,23-11.56,69.45-22.36,83.72-7.82,10.33-17.89,16.13-28.34,16.32h-.54c-10.41,0-20.44-5.68-28.25-16-3.93-5.2-6.94-11.49-10.13-18.16-6.67-14-13.58-28.39-29.55-32.16a23.69,23.69,0,0,0-5.46-.7c-5.85,0-9.22,2.78-13.12,6a42.89,42.89,0,0,1-8,5.59,26.36,26.36,0,0,1-12.2,3.07c-8.72,0-16.53-4.41-24.8-9.09s-16.7-9.44-26.14-9.44H732a55,55,0,0,0-12.31,2,42.36,42.36,0,0,1-10.3,1.68,22.14,22.14,0,0,1-10.17-2.51c-1.46-.72-2.83-1.49-4.16-2.23-3.74-2.1-7.26-4.09-11.39-4.09A15.2,15.2,0,0,0,677,850c-1.84.88-3.94,3-6.16,5.16-3.53,3.51-7.54,7.49-11.31,7.49a5.17,5.17,0,0,1-2.55-.67c-3-1.63-4.46-4.59-4.46-8.8C652.46,843.27,660.83,829.92,665.89,827.11Z" fill="#5d5d5d"/><path d="M501.55,947.89a36.39,36.39,0,0,0,7.79.61c7.3,0,34.39-1.09,76.65-15,35.33-11.67,76.65-18.09,116.33-18.09,65.33,0,108.73,9.78,164.63,63.29,4,3.8,9.29,5.72,15.8,5.72,24.3,0,61-26.44,83.65-60.2,17.66-26.38,43.33-80.24,16.82-144.63C971.81,751.84,957.48,748,943.69,748c-17,0-38.34,6.87-63.05,14.83-33.27,10.73-71,22.88-112.79,22.88a194.2,194.2,0,0,1-93.56-23.48c-93.62-49.93-94.89-142.94-87.7-208.56,2.22-20.33-.94-36.41-8.89-45.28-4.79-5.34-11.18-8-19-8-17.79,0-40.2,14.52-48.62,42.29-7.61,25.08,14,52.41,39.05,84.06,32,40.44,71.8,90.76,64,158.2a174.81,174.81,0,0,1-15.32,54.58c-12.64,26.89-29.36,49.72-49.69,67.84-13.41,12-26.87,20.32-36.7,26.42-8.95,5.56-14.35,8.92-14,11.47C497.67,946.37,499,947.22,501.55,947.89Zm10.29-13.53c9.85-6.11,23.34-14.49,36.8-26.49,20.4-18.19,37.18-41.09,49.86-68.07A175.74,175.74,0,0,0,613.89,785c7.79-67.73-32.12-118.19-64.2-158.73-24.91-31.49-46.42-58.68-38.92-83.4,8.32-27.43,30.41-41.78,47.93-41.78,7.61,0,13.82,2.62,18.46,7.8,7.82,8.72,10.91,24.6,8.71,44.72-7.21,65.83-5.93,159.14,88.08,209.28a194.89,194.89,0,0,0,93.9,23.57c41.93,0,79.69-12.18,113-22.93,24.61-7.93,45.87-14.78,62.79-14.78,13.54,0,27.61,3.76,38.87,31.09,26.38,64.08.82,117.69-16.76,143.95-22.11,33-59.37,59.88-83,59.88-6.32,0-11.47-1.85-15.3-5.52-27.09-25.93-52.3-42.42-79.34-51.88-23.27-8.14-48.92-11.62-85.79-11.62-39.76,0-81.15,6.44-116.56,18.14-42.15,13.92-69.15,15-76.42,15a35.48,35.48,0,0,1-7.61-.59c-2.21-.57-3.4-1.27-3.52-2.08C497.89,943,503.74,939.39,511.84,934.36Z" fill="#5d5d5d"/><path d="M558.7,516.92c-12.88,0-27,13-31.64,24.69-3.07,7.75-.73,21,6.25,35.43,6.59,13.61,15.36,24.06,21.84,26a10.44,10.44,0,0,0,3,.44,9.77,9.77,0,0,0,3.2-.54c8.36-2.91,8.17-8,7.76-19.28a184.94,184.94,0,0,1,.82-29.36c1.91-17.44-.82-30.74-4.51-34.85C564.19,518.14,562.56,516.92,558.7,516.92Zm10,37.26a186.27,186.27,0,0,0-.83,29.54c.42,11.26.57,15.47-7,18.09a8.65,8.65,0,0,1-5.42.09c-6.17-1.86-14.65-12.06-21.1-25.39-6.84-14.14-9.17-27-6.22-34.45,4.49-11.33,18.13-23.94,30.53-23.94,3.39,0,4.78,1,5.78,2.14C568,524.17,570.56,537.08,568.69,554.18Z" fill="#5d5d5d"/><path d="M849.22,864.72a45.54,45.54,0,0,1,6.09,3c.76.43,1.59.89,2.57,1.42,9.89,5.29,18.18,10.69,24,15.59,3.28,2.77,6,4.12,8.22,4.12,3.3,0,5.22-2.8,6.76-5.42,5.81-9.89,7.86-17.53,10.24-30.9.29-1.64.34-3.93-1-5.57-1.73-2.07-5.16-2.42-10.2-1-15.22,4.21-25.48,6.15-38.46,8.61l-7.07,1.35c-2.51.48-4.4,2.24-4.6,4.29C845.63,861.08,845.79,863.34,849.22,864.72Zm1.35-7.47,7.06-1.35c13-2.46,23.3-4.41,38.58-8.63a18.57,18.57,0,0,1,4.9-.79,4.82,4.82,0,0,1,3.87,1.37c1,1.23,1,3.09.72,4.43-2.35,13.21-4.36,20.74-10.07,30.45-1.67,2.84-3.25,4.74-5.56,4.74-1.91,0-4.3-1.24-7.32-3.79-5.87-5-14.25-10.42-24.22-15.76-1-.52-1.79-1-2.54-1.41a47.52,47.52,0,0,0-6.26-3.08c-1.8-.72-2.76-1.86-2.64-3.12S848.69,857.61,850.57,857.25Z" fill="#5d5d5d"/><path d="M628.81,890a76.5,76.5,0,0,0,8.31-.57,737.51,737.51,0,0,1,73.66-4.06,366.39,366.39,0,0,1,38.58,1.79c55.19,5.93,102.94,32.25,125.78,55.69a20.25,20.25,0,0,0,14.92,6.5c12.79,0,28.54-11.13,43.23-30.53,25.72-34,33.49-99,20.75-124.66-3.38-6.8-8.11-10.39-13.67-10.39a13.45,13.45,0,0,0-1.41.07c-10.09,1-24.09,5.14-41.82,10.34C864,803.92,818.49,817.25,769.2,818c-42.12.69-90.27-16-106.64-24-5.35-2.61-8.81-3.77-11.22-3.77-4.88,0-5.09,4.64-5.44,12.33-.28,6.11-.66,14.49-3.64,24.05a306.18,306.18,0,0,1-16,40.18c-5,10.67-8,17.12-5.85,20.46C621.54,889.18,624.14,890,628.81,890Zm-1.95-22.83a304.9,304.9,0,0,0,16.08-40.26c3-9.66,3.4-18.09,3.68-24.24.34-7.51.52-11.64,4.72-11.64,2.26,0,5.72,1.17,10.9,3.69,16.11,7.85,62.85,24.06,104.5,24.06l2.46,0c49.4-.79,94.91-14.14,128.14-23.89,17.7-5.19,31.67-9.29,41.7-10.31,6-.61,10.79,2.74,14.36,9.92,12.65,25.45,4.89,90.1-20.69,123.9-14.54,19.23-30.09,30.25-42.65,30.25a19.54,19.54,0,0,1-14.4-6.28c-22.94-23.54-70.86-50-126.22-55.91a367.87,367.87,0,0,0-38.66-1.79c-37.4,0-72.27,3.9-73.74,4.06a72.94,72.94,0,0,1-8.23.57c-4.33,0-6.83-.74-7.84-2.33C619.05,883.94,622,877.63,626.86,867.17Z" fill="#5d5d5d"/><path d="M575.1,917.49a26.07,26.07,0,0,0,8.07-1.6c33.61-11.66,72.58-17.32,119.15-17.32,58,0,115.49,5.31,180.8,69.53a10,10,0,0,0,7.32,2.77h0c18.26,0,52-35,62-56.08.91-1.93,1.9-4,2.95-6.11,12.73-26.12,34-69.84,12.27-122.73-8.7-21.14-16.83-21.14-24-21.14-14.39,0-34.55,6.5-57.89,14-34.45,11.11-73.49,23.69-117.95,23.69-38,0-68.82-7-99.81-22.66-4.79-2.43-9.41-5.08-13.49-7.42-8.16-4.68-14.6-8.38-18.75-8.38-3.24,0-4.84,2.26-4.9,6.91,0,.73.11,1.93.27,3.58,4.44,45.55-13.2,88.08-52.42,126.39-6.85,6.69-9.75,11.5-8.61,14.29C570.74,916.71,572.46,917.49,575.1,917.49Zm4.15-16C604.48,876.82,621,850.07,628.39,822a129.86,129.86,0,0,0,3.5-47.49c-.16-1.63-.27-2.81-.26-3.5.06-5.56,2.41-6.2,4.17-6.2,4,0,10.65,3.84,18.39,8.29,4.09,2.34,8.72,5,13.53,7.43,31.09,15.73,62,22.75,100.13,22.75,44.57,0,83.67-12.61,118.17-23.73,23.28-7.51,43.39-14,57.67-14,6.95,0,14.81,0,23.33,20.68,21.65,52.59.43,96.13-12.25,122.15-1,2.15-2,4.18-2.95,6.11-9.93,20.94-43.34,55.68-61.38,55.67a9.34,9.34,0,0,1-6.82-2.57c-30.34-29.83-61.75-49.37-96-59.73-30.53-9.23-58.87-10-85.29-10-46.65,0-85.7,5.69-119.39,17.37a25.44,25.44,0,0,1-7.83,1.56c-1.62,0-3.69-.31-4.3-1.81S570.57,909.94,579.25,901.46Z" fill="#5d5d5d"/><path d="M446.11,0h-1.77a242.35,242.35,0,0,0-7.81,42.66c-2.66,27.07-5,62.51.54,96.68,4,24.91,12.14,36,26.29,36h0c9,0,19.52-4.38,31.67-9.44,8.45-3.52,17.18-7.16,26.51-9.8.89-.26,1.78-.5,2.69-.74,26.57-7.13,56.52-8.13,88.3-3a243.78,243.78,0,0,1,25.52,6.08c12.18,3.36,24.78,6.84,37.57,7.4,6.94.31,11.88-.39,15.37-2.13,10.21-5.08,5.25-17.78,0-31.23-3.1-8-6.32-16.17-6.85-23.55-2.8-39.16,19.08-74.85,48-108.95h-2.21c-28.7,34-50.28,69.75-47.46,109.07.54,7.63,3.8,16,7,24,5.18,13.27,9.66,24.72.82,29.12-3.18,1.58-8,2.24-14.54,2-12.6-.56-25.11-4-37.2-7.35a246.3,246.3,0,0,0-25.71-6.12c-32-5.18-62.2-4.16-89,3-.91.25-1.81.49-2.71.75-9.43,2.67-18.2,6.33-26.69,9.87-12,5-22.34,9.31-31,9.31-13.16,0-20.75-10.67-24.63-34.6-5.52-34-3.18-69.28-.53-96.24A238.58,238.58,0,0,1,446.11,0Z" fill="#5d5d5d"/><path d="M424.59,671.63c-1.61-1.46-3-2.16-4.39-2.16-3.36,0-5.71,4.27-9.27,10.73-3.69,6.69-8.74,15.86-17.48,25.15l-2.56,2.72c-10,10.62-14.59,15.46-13.47,18.06.51,1.18,2.06,1.71,5,1.71a99.11,99.11,0,0,0,12.38-1.23,56.61,56.61,0,0,1,7.7-.54c20.82,0,38.17,11.67,50.83,20.2,7.42,5,13.28,8.93,17.47,8.93a5.21,5.21,0,0,0,4.29-2.09C488.39,736.05,441.92,687.34,424.59,671.63Zm49.57,80.74a4,4,0,0,1-3.34,1.63c-3.83,0-9.55-3.85-16.8-8.73-12.79-8.61-30.31-20.4-51.5-20.4a57.61,57.61,0,0,0-7.87.55,96.52,96.52,0,0,1-12.21,1.22c-2.32,0-3.63-.33-3.91-1-.81-1.88,4.77-7.8,13.23-16.77l2.57-2.72c8.84-9.39,13.93-18.64,17.65-25.39,3.35-6.09,5.57-10.11,8.22-10.11a5.69,5.69,0,0,1,3.58,1.85C445.31,692,485.94,737.24,474.16,752.37Z" fill="#5d5d5d"/><path d="M424.92,691.64c-8.4,0-19.22,13.25-19.27,19.54,0,2.57,1.57,4.08,4.38,4.13,12.38.22,25.46,8.06,35,13.79,5.66,3.39,9.75,5.85,12.17,5.85h0a2.41,2.41,0,0,0,1.83-.72,3.53,3.53,0,0,0,.68-2.79c-.89-11.53-22.8-34.65-31.69-39.09A6.87,6.87,0,0,0,424.92,691.64ZM458,731.57c.08,1-.11,1.38-.23,1.52s-.17.18-.6.18h0c-2,0-6.29-2.6-11.31-5.61-9.71-5.83-23-13.8-35.84-14-1.9,0-2.75-.79-2.73-2.44.05-5.61,10.11-17.87,17.59-17.87a5.28,5.28,0,0,1,2.36.53C436.85,698.64,457.24,721.11,458,731.57Z" fill="#5d5d5d"/><path d="M395.23,474h0c2.07,0,3.71-2.92,5.32-9.47,6-24.5,25.93-56.93,56.83-74.18,31.26-17.45,52.11-22,63.31-24.41,5.56-1.21,8.35-1.81,9-3.28a2.19,2.19,0,0,0-.25-2c-2.15-3.94-40.9-25.62-96.61-30.11l-2.35-.19c-5-.42-9.36-.77-13.52-.77-14.54,0-26.26,4.06-53.61,27.17-4.32,3.66-8.74,7-13,10.32-13.23,10.14-24.66,18.9-23.91,28.84.57,7.63,8.13,15.2,23.79,23.84,17.33,9.55,27.89,28.5,34.88,41C389.54,468.71,392.46,474,395.23,474Zm-44.66-54.88c-15.21-8.38-22.87-16-23.41-23.26-.72-9.55,10.56-18.19,23.63-28.21,4.28-3.28,8.71-6.67,13-10.33,27.18-23,38.79-27,53.15-27,4.13,0,8.45.35,13.46.76l2.35.2c54.43,4.39,94,26,96,29.73.41.76.32,1.14.22,1.36-.52,1.14-3.53,1.79-8.52,2.88-11.23,2.44-32.15,7-63.51,24.49-31.08,17.34-51.11,50-57.17,74.62-1.48,6-3,8.93-4.62,8.93h0c-2.35,0-5.5-5.66-9.49-12.83C378.71,447.8,368.09,428.74,350.57,419.08Z" fill="#5d5d5d"/><path d="M399.76,515.16c2.09,0,3.53-2.5,4.54-7.87,6.23-33,19.74-79.85,64.89-104.82,13.95-7.71,29.71-13.83,48.16-18.7,3.72-1,7.69-3.65,11.54-6.24,5-3.35,10.12-6.82,14.87-6.82a9.45,9.45,0,0,1,1.61.14c2.66.47,4.65,2,6.57,3.5,2.17,1.67,4.21,3.25,7,3.25a8.92,8.92,0,0,0,3.34-.69c2-.79,3.07-2.36,4.08-3.87,1.44-2.14,2.78-4.14,6.86-3.8s6.23,3.43,8.54,6.7c1.62,2.29,3.29,4.65,5.65,6a17.55,17.55,0,0,0,7.61,2c1.93,0,3.29-.5,4.05-1.51a4.48,4.48,0,0,0,.38-4c-1.58-5.66-13.71-10.94-21.74-14.44-2.37-1-4.42-1.92-5.73-2.62-12-6.34-23.88-11.7-34-16.11-42.54-18.61-81.31-30-118.53-34.71a86.81,86.81,0,0,0-11.1-.79c-18.33,0-32.54,8-60.82,34.31-6.94,6.45-14.08,12-21,17.35-15.47,12-27.68,21.49-27.39,33.42.23,9.42,8.41,19.45,25.73,31.57,27.88,19.52,46.4,49.16,58.65,68.77C391.15,507.18,396.13,515.16,399.76,515.16Zm-74.4-89.42c-17.12-12-25.19-21.83-25.42-31-.29-11.56,11.8-20.95,27.11-32.83,6.92-5.37,14.07-10.92,21-17.39,28.12-26.15,42.22-34.13,60.33-34.13a87.35,87.35,0,0,1,11,.79c37.15,4.74,75.86,16.08,118.33,34.66,10.08,4.4,22,9.76,33.92,16.08,1.34.71,3.4,1.61,5.78,2.65,7.91,3.44,19.85,8.65,21.33,14a3.86,3.86,0,0,1-.25,3.42c-.77,1-2.32,1.22-3.48,1.22a17,17,0,0,1-7.25-1.9c-2.23-1.24-3.85-3.53-5.42-5.75-2.31-3.27-4.69-6.64-9.07-7s-6,1.91-7.52,4.12c-1,1.49-1.94,2.89-3.75,3.6a8.28,8.28,0,0,1-3.07.64c-2.57,0-4.52-1.5-6.59-3.1s-4-3.14-6.88-3.64a10.05,10.05,0,0,0-1.74-.15c-5,0-10.21,3.53-15.28,6.94-4,2.67-7.71,5.2-11.31,6.15-18.52,4.88-34.32,11-48.33,18.76-45.41,25.12-59,72.13-65.25,105.31-.92,4.91-2.17,7.29-3.83,7.29-3.23,0-8.39-8.27-15.55-19.72C371.93,475.05,353.36,445.34,325.36,425.74Z" fill="#5d5d5d"/><path d="M488.43,816.3c16.41-1.87,31.87-13.15,39.4-28.73,6.87-14.24,10.59-38.38-10.72-72.56-9.16-14.68-19.14-29.5-28.79-43.83-27.6-41-53.67-79.68-64.43-118.51-12.17-43.92-2.4-80.15,30.77-114,28.72-29.33,66.67-46.15,104.14-46.15,28.15,0,53.27,9.91,70.72,27.89,19.18,19.76,28.77,48.67,27.72,83.6-.24,8.11-.63,16.49-1,25.36-1.45,31.53-3.09,67.27,2,97,5.86,34.19,19.75,55.32,42.46,64.57,12.16,5,23.69,7.47,34.27,7.47,19.23,0,35.59-8.39,47.32-24.26,20-27,24.73-73.23,11.89-115-27.53-89.7-93.71-143.26-191.56-200.6-74.32-43.55-137.1-57-193.87-65.05a86.12,86.12,0,0,0-12-.9c-23.71,0-35,12.07-49.28,27.36A251.65,251.65,0,0,1,329.24,338a144.79,144.79,0,0,1-21.4,15.31c-10,6.14-18.63,11.45-28.14,25.66-18.87,28.2,6.38,45.5,33.1,63.82,14.12,9.68,28.72,19.69,36.54,31.53,49.16,74.47,29.32,153.91-5.63,203.42-10,14.16-24.58,27.52-40,41.67-18.89,17.3-38.43,35.19-49.6,55.16-4.8,8.6-6.17,14.44-4.17,17.84,1.46,2.49,4.69,3.71,9.87,3.71h0c9.22,0,23.86-3.82,40.83-8.25C324.4,781.7,354,774,380.15,774c13.86,0,25.74,2.21,35.3,6.56s17.6,10.61,25.4,16.68c12.83,10,24.95,19.4,42.07,19.4A49.29,49.29,0,0,0,488.43,816.3Zm-72.68-36.41c-9.8-4.46-21.44-6.63-35.6-6.63-26.24,0-55.89,7.73-79.72,13.94-16.91,4.42-31.52,8.22-40.64,8.23h0c-4.9,0-7.93-1.1-9.25-3.35-1.86-3.17-.49-8.77,4.18-17.12,11.12-19.88,30.61-37.73,49.46-55,15.47-14.18,30.09-27.56,40.13-41.78,20.49-29,32.58-62.12,35-95.7,2.73-38.4-7.14-74.92-29.33-108.54-7.89-12-22.55-22-36.73-31.73C286.78,424.11,261.83,407,280.3,379.4c9.42-14.08,18-19.35,27.92-25.45a145.46,145.46,0,0,0,21.5-15.38A255.1,255.1,0,0,0,348,320.39c14.16-15.16,25.35-27.13,48.75-27.13a84.64,84.64,0,0,1,11.88.9c56.69,8,119.39,21.46,193.61,64.95,97.7,57.25,163.76,110.71,191.24,200.2,12.77,41.6,8,87.58-11.79,114.4-11.59,15.68-27.75,24-46.74,24-10.49,0-21.92-2.49-34-7.41-22.47-9.16-36.21-30.1-42-64-5.08-29.66-3.44-65.36-2-96.86.41-8.87.8-17.25,1-25.37,1-35.13-8.6-64.21-27.92-84.12-17.59-18.13-42.89-28.11-71.24-28.11-37.66,0-75.8,16.9-104.66,46.37-17.62,18-28.49,36.56-33.26,56.76-4.25,18-3.49,37,2.32,57.95,10.79,38.95,36.89,77.7,64.52,118.73,9.65,14.32,19.63,29.14,28.77,43.8,21.15,33.91,17.49,57.79,10.69,71.86-7.42,15.37-22.67,26.49-38.84,28.33a47.58,47.58,0,0,1-5.42.32c-16.87,0-28.9-9.35-41.63-19.25C433.46,790.56,425.36,784.26,415.75,779.89Z" fill="#5d5d5d"/><path d="M504.16,786.54a26.59,26.59,0,0,0,11-19c2.86-23.61-18.07-58-36.86-80.33-23.46-27.84-46.73-57.56-58.12-86.3-.56-1.42-1.42-5.42-2.51-10.49C414,573.3,407.84,544.71,399,544.71a4.81,4.81,0,0,0-2.48.74c-3.69,2.19-4.78,6.49-3.33,13.14,1.18,5.45,3.9,11.73,6.29,17.27,2.54,5.87,4.73,10.94,4.69,13.81-.09,7.41-3.55,10.68-6.9,13.84-2.61,2.47-5.31,5-6.28,9.45-1.24,5.72,1.11,10,3.39,14.16,2.1,3.83,4.28,7.79,3.59,12.9-1.27,9.38-31,43.21-57.18,73.05-21.69,24.7-40.41,46-40.09,50.11a1,1,0,0,0,.34.73c1.79,1.49,5.05,2.21,10,2.21h0c7.74,0,18.53-1.73,31-3.73,15.15-2.43,32.31-5.19,47.21-5.19,11.63,0,20.34,1.66,26.61,5.07,3.42,1.86,7.22,4.06,11.24,6.4,17.9,10.4,40.18,23.34,59,23.34A30,30,0,0,0,504.16,786.54Zm-88-24.9c-6.39-3.47-15.21-5.15-27-5.15-14.95,0-32.15,2.75-47.32,5.19-12.46,2-23.22,3.72-30.91,3.72h0c-4.74,0-7.84-.67-9.5-2,0,0-.07-.06-.09-.22-.29-3.78,19.24-26,39.92-49.58,26.27-29.92,56.05-63.84,57.35-73.43.73-5.35-1.51-9.41-3.67-13.35-2.32-4.22-4.5-8.2-3.31-13.65.92-4.22,3.42-6.58,6.07-9.09,3.45-3.26,7-6.64,7.12-14.35,0-3-2.18-8.16-4.75-14.1-2.38-5.51-5.08-11.76-6.25-17.14-1.37-6.31-.39-10.36,3-12.37a4.1,4.1,0,0,1,2.11-.64c8.29,0,14.58,29.34,18,45.1a105.9,105.9,0,0,0,2.54,10.6c11.43,28.84,34.75,58.62,58.24,86.5,18.7,22.2,39.53,56.41,36.69,79.78A25.88,25.88,0,0,1,503.74,786a29.33,29.33,0,0,1-17.65,5.33c-18.66,0-40.84-12.89-58.67-23.25C423.4,765.71,419.6,763.5,416.17,761.64Z" fill="#5d5d5d"/><path d="M496,756.42c2.14-19.77-19-50.79-29.62-62.71A612.05,612.05,0,0,1,426.9,644c-8.36-11.5-13-17.84-15.94-17.84-2,0-3.17,2.64-3.87,9.14-5.24,48.86-36.84,75.32-55.72,91.13-8.27,6.93-13.74,11.5-14,15.27a3.87,3.87,0,0,0,1.14,3c1.73,1.84,4.46,2.69,8.6,2.69,4.66,0,10.54-1.08,17.35-2.33,8.83-1.62,18.85-3.46,29.11-3.46,14,0,25.22,3.48,34.44,10.64,13,10.08,32.2,20.85,47.23,20.85h0a22.92,22.92,0,0,0,13.81-4.11C493.05,766.06,495.36,761.84,496,756.42Zm-20.67,15.91h0c-14.85,0-33.9-10.69-46.79-20.7-9.35-7.26-20.76-10.79-34.88-10.79-10.33,0-20.38,1.85-29.24,3.47-6.78,1.25-12.63,2.32-17.22,2.32-3.93,0-6.49-.78-8.07-2.46a3.09,3.09,0,0,1-.95-2.42c.21-3.46,5.87-8.2,13.7-14.76,19-15.88,50.71-42.46,56-91.62.63-5.87,1.6-8.49,3.15-8.49,2.61,0,7.41,6.6,15.36,17.55a612.56,612.56,0,0,0,39.47,49.75c10.52,11.85,31.56,42.63,29.45,62.16-.57,5.21-2.78,9.26-6.58,12A22.23,22.23,0,0,1,475.28,772.33Z" fill="#5d5d5d"/><path d="M701,558.94c-2.47,37.54,8.31,63.37,19.22,75,5,5.33,10.48,8.27,15.43,8.27h0c7,0,12.24-5.49,14.78-15.47,16.4-64.25-39.42-132-46.28-137.64-2-1.63-3.34-1.84-4.23-.87-1.6,1.74-1.1,7.47-.19,17.88C700.84,518.45,702.46,537.05,701,558.94Zm-.18-69.86a.51.51,0,0,1,.43-.19c.33,0,1,.2,2.15,1.17,6.79,5.61,62.13,72.75,45.88,136.43-2.4,9.39-7.24,14.56-13.62,14.56h0c-4.62,0-9.78-2.8-14.55-7.9-10.74-11.47-21.35-37-18.91-74.13,1.45-22-.17-40.63-1.25-53C700.17,497,699.6,490.43,700.84,489.08Z" fill="#5d5d5d"/><path d="M993.71,136.88c-18.76,0-39.56,3.55-61.58,7.31-26.3,4.48-53.5,9.12-83.13,9.12-2.19,0-4.34,0-6.39-.07l-5.22-.14c-4.48-.12-8.71-.23-12.79-.23-25.53,0-41.35,5.2-51.77,32.64-6.59,17.35-14.05,37-32,49.7-5.07,3.59-10.14,6.65-14.61,9.35-10.37,6.27-18.56,11.22-18.87,18.05-.28,6.28,6.08,13.84,20.6,24.5,13.94,10.22,25.4,15.19,35,15.19.87,0,1.75,0,2.6-.12,14-1.3,23.41-12.88,35.32-27.54a270.19,270.19,0,0,1,18.73-21.41,257.9,257.9,0,0,1,110.76-65.75A185.84,185.84,0,0,1,981.6,180c40.84,0,72.34,14.77,98.4,31.84v-.86c-26.07-17-57.57-31.7-98.4-31.7a186.48,186.48,0,0,0-51.36,7.56,258.49,258.49,0,0,0-111.07,65.93,269.3,269.3,0,0,0-18.78,21.46c-11.8,14.53-21.11,26-34.83,27.29-.83.07-1.68.11-2.53.11-9.49,0-20.81-4.92-34.62-15.05C714.1,276,707.83,268.66,708.1,262.64c.29-6.45,8.34-11.31,18.52-17.46,4.48-2.71,9.57-5.78,14.66-9.38,18.09-12.81,25.6-32.58,32.23-50,10.27-27.06,25.88-32.18,51.09-32.18,4.07,0,8.29.11,12.77.23l5.22.14c2.06,0,4.21.07,6.41.07,29.69,0,56.92-4.64,83.25-9.13,22-3.75,42.76-7.3,61.46-7.3a104.29,104.29,0,0,1,29,3.68c18.6,5.31,37.65,14,57.31,24.19v-.81c-19.58-10.11-38.56-18.78-57.12-24.08A105.24,105.24,0,0,0,993.71,136.88Z" fill="#5d5d5d"/><path d="M682.44,556.77c-2.78,36.42,4.41,65.88,20.25,83,8.28,9,18.47,13.87,28.66,13.87h0c14.53,0,26.17-10.1,29.63-25.73,10.1-45.69-5.54-86.79-20.44-113.23-17.51-31.07-39.92-53-50.7-60.23-3.94-2.63-6.72-4.26-8.41-4.26a1.89,1.89,0,0,0-1.48.62c-1.38,1.57-.82,6,.31,14.87C682.27,481.32,686,510.47,682.44,556.77Zm-1.94-105.5a1.17,1.17,0,0,1,.94-.38c1.5,0,4.29,1.65,8,4.14,24.36,16.23,89.07,90.27,70.83,172.7C756.9,643,745.54,652.9,731.35,652.9c-10,0-20-4.84-28.13-13.64-15.7-17-22.83-46.22-20.06-82.43,3.54-46.38-.17-75.58-2.17-91.27C680,457.48,679.33,452.6,680.5,451.27Z" fill="#5d5d5d"/><path d="M668.63,559.13c-2.76,45.33,5.91,81.13,24.43,100.81,9.58,10.18,21.2,15.56,33.61,15.56h0c23.75,0,43.87-19.22,50.07-47.82,9.15-42.21,1.28-83.75-23.37-123.47-25-40.25-59.53-66.28-77.91-78.21-9.36-6.07-13.37-8.6-14.91-6.76-1.27,1.53-.44,5.89,1.2,14.59C665.33,452.66,672.74,491.85,668.63,559.13ZM661.11,419.7a1,1,0,0,1,.86-.35c1.93,0,6.14,2.73,13.1,7.26C736.32,466.36,795,540,776.05,627.52c-6.13,28.27-26,47.26-49.38,47.26-12.21,0-23.65-5.3-33.09-15.33-18.38-19.54-27-55.15-24.23-100.28,4.11-67.37-3.31-106.61-6.88-125.48C661,425.76,660.06,421,661.11,419.7Z" fill="#5d5d5d"/><path d="M392.44,408.55c6.8,0,11.66-6.55,16.87-16.38,9.1-17.19,28.1-25.5,38.3-30,5.17-2.26,7.11-3.11,6.86-4.52-.21-1.19-1.54-1.7-8.6-2.18-21.26-1.44-69,18.83-74.46,34.1-1.28,3.54-.34,6.74,2.72,9.27,8.2,6.78,13.67,9.68,18.31,9.68ZM373,390.17c5-13.95,49.36-33.07,70.61-33.07.75,0,1.47,0,2.16.07a36.43,36.43,0,0,1,6.75.83,49,49,0,0,1-5.57,2.66c-10.39,4.55-29.74,13-39.12,30.72-5.9,11.15-10.21,15.49-15.38,15.49-4.21,0-9.37-2.78-17.24-9.29C372.67,395.48,372,393.06,373,390.17Z" fill="#5d5d5d"/><path d="M413.33,407.69c16.35-29.78,46.21-40.18,70.41-45.91,2.32-.55,2.54-1.74,2.46-2.4-.57-4.85-23.22-14.13-57-14.13-3.82,0-7.72.12-11.61.35-15.45.94-51.88,22.49-65,38.44-3.41,4.14-4.95,7.59-4.58,10.24.9,6.62,6.8,9.56,13.63,13,7.23,3.6,15.42,7.68,19.41,17.19,2.32,5.54,5.37,8.35,9.06,8.35C396.37,432.78,404.19,424.34,413.33,407.69ZM382.15,424c-4.16-9.92-12.56-14.11-20-17.8-6.53-3.25-12.17-6.06-13-12.05-.31-2.28,1.19-5.5,4.32-9.32,12.95-15.77,48.9-37.08,64.13-38,3.85-.23,7.73-.35,11.53-.35,33.23,0,55.39,9.19,55.84,13.07.07.62-.94,1-1.55,1.1-24.43,5.78-54.61,16.3-71.19,46.49C398.5,432.2,388.15,438.28,382.15,424Z" fill="#5d5d5d"/><path d="M729.11,613.5h0c1.27,0,2.38-.88,3.3-2.62,4.68-8.76,4.59-39.09-7.81-57.55-1.61-2.39-4-2.08-5.7.94-4.66,8-6.62,33.51,6.07,55.75C726.29,612.33,727.68,613.5,729.11,613.5Zm-8.76-58.39c.62-1.06,1.28-1.7,1.78-1.7s.86.54,1.07.86c11.87,17.66,12.12,47.58,7.73,55.82-.59,1.12-1.24,1.73-1.82,1.73-.75,0-1.72-1-2.68-2.64C714.23,587.81,716,562.62,720.35,555.11Z" fill="#5d5d5d"/><path d="M885.22,687.14c1.71,2.47,5.89,3.52,14,3.52,5.06,0,11.09-.4,18.08-.87,8.65-.57,18.45-1.23,28.59-1.23,32.09,0,53.73,6.82,68.17,21.52,13.41,10.32,20.81,27.14,27.34,42,7.94,18,14.79,33.62,29.92,33.62a25.11,25.11,0,0,0,5-.54c1.16-.24,2.38-.55,3.65-.94V783c-1.36.43-2.66.77-3.9,1a24.07,24.07,0,0,1-4.8.51c-14.35,0-21.06-15.25-28.82-32.91-6.59-15-14-32-27.65-42.4-14.61-14.88-36.52-21.82-69-21.82-10.18,0-20,.66-28.67,1.24-7,.46-13,.86-18,.86-7.45,0-11.57-1-13-3-.78-1.12-.79-2.64,0-4.65C901.43,641,914.22,589.33,913,573.41c-2.16-27.86-14.41-54.19-26.26-79.64-14.48-31.14-28.17-60.54-19.47-85.07,12.08-34.08,67.28-93.25,97.18-97.32a34.88,34.88,0,0,1,4.78-.3c23.28,0,64.3,16.67,110.79,44.23v-1.39c-46.44-27.45-87.43-44-110.79-44a37.14,37.14,0,0,0-4.94.31c-30.23,4.12-86,63.76-98.15,98.11-8.86,25,4.92,54.61,19.52,86,11.8,25.36,24,51.59,26.14,79.24,1.09,13.93-10.36,64.1-26.74,107.88C884.14,683.79,884.2,685.67,885.22,687.14Z" fill="#5d5d5d"/><path d="M999,1067c-1.37,0-3.69.15-6.63.34-4.94.32-11.71.76-18.44.76-16.67,0-25.41-2.75-26-8.16-.84-8.13,18.5-20.22,31.29-28.22,5.08-3.18,9.47-5.92,11.52-7.72,15.93-14,30.64-31.35,43.72-51.7,8.67-13.48,15-28,21.79-43.4,5.08-11.57,13.16-23.59,23.69-31.9v-.89c-10.84,8.4-19.16,20.67-24.35,32.5-6.74,15.36-13.1,29.87-21.73,43.3-13.05,20.29-27.72,37.64-43.6,51.55-2,1.76-6.36,4.49-11.42,7.65-13.72,8.58-32.51,20.33-31.63,28.91.61,5.92,9.34,8.8,26.68,8.8,6.75,0,13.54-.44,18.49-.76,2.92-.19,5.23-.34,6.58-.34,25.25,0,47.7,4,68,12.27H1069C1048.14,1071.28,1025.06,1067,999,1067Z" fill="#5d5d5d"/><path d="M535.25,68.66a53.71,53.71,0,0,0,11.39-1.46c4.43-1,8.61-1.91,12.4-2.43,6.42-.86,12.64-1.22,18.17-1.54a37.93,37.93,0,0,0,17.32-5.18C616.87,45,626.21,18.27,629.19,7.38c.71-2.62,1.43-5,2.13-7.38h-.75c-.69,2.28-1.38,4.65-2.08,7.19-3,10.8-12.21,37.31-34.33,50.24a37.17,37.17,0,0,1-17,5.08c-5.5.32-11.73.68-18.18,1.55-3.82.52-8,1.45-12.45,2.43a52.37,52.37,0,0,1-11.24,1.45c-5.31,0-9-1.36-11.3-4.16-3.4-4.15-3.89-11.57-1.53-23.36l.39-1.93C526,22.27,531.51,9.77,540.18,0h-.95c-8.51,9.78-14,22.24-17.13,38.35l-.38,1.93c-2.41,12-1.88,19.63,1.67,24C525.83,67.22,529.71,68.66,535.25,68.66Z" fill="#5d5d5d"/><path d="M993.71,153.44c-17.35,0-37.48,3.43-58.8,7.07-27,4.6-54.87,9.36-85.91,9.36-2.28,0-4.54,0-6.78-.08l-5.28-.13c-4.36-.12-8.47-.23-12.34-.23-33.63,0-35.29,18.48-37.05,38-1,10.74-2,21.84-7.88,31.27-2.11,3.36-7.79,7.62-13.79,12.14-12.79,9.6-27.28,20.49-20.33,30.68,3,4.39,6.6,6.61,10.71,6.61a16.05,16.05,0,0,0,7.26-2c11.34-5.85,23.47-23.17,33.22-37.09,5.53-7.9,10.3-14.73,12.92-16.29a16,16,0,0,1,8.42-1.85c1,0,2,0,3.07.07s2.11.07,3.16.07c4,0,8.13-.47,11.9-3.9,4.54-4.14,5.11-9.5,5.67-14.68.49-4.66,1-9.06,4.06-12.76,9.36-11.19,42.18-19,63.9-24.17,6.4-1.52,11.92-2.84,16-4a202.5,202.5,0,0,1,55.72-8.17c40.13,0,72.22,13.15,98.4,28.89v-1.41c-26.2-15.66-58.29-28.68-98.4-28.68a203.44,203.44,0,0,0-56.06,8.22c-4.09,1.17-9.6,2.48-16,4C886.38,179.93,854.63,187.49,845,199c-3.33,4-3.84,8.77-4.34,13.4-.55,5.19-1.07,10.09-5.28,13.92-3.47,3.16-7.38,3.59-11.09,3.59-1,0-2.08,0-3.11-.07s-2.09-.07-3.12-.07a17.17,17.17,0,0,0-9,2c-2.83,1.69-7.44,8.28-13.29,16.63-9.15,13.08-21.7,31-32.78,36.71-6.75,3.48-12.1,2.12-16.43-4.22-6.3-9.25,7.7-19.77,20.06-29,6.36-4.78,11.86-8.91,14.08-12.47,6.07-9.67,7.08-20.91,8.06-31.79,1.79-19.83,3.33-37,35.86-37,3.85,0,8,.11,12.31.23l5.28.13c2.26.06,4.52.08,6.81.08,31.14,0,59.09-4.77,86.13-9.38,21.25-3.62,41.33-7.05,58.58-7.05a88,88,0,0,1,24.3,3c19.61,5.6,40.33,15.55,62,27.05v-1.36c-21.52-11.4-42.11-21.26-61.66-26.84A89.19,89.19,0,0,0,993.71,153.44Z" fill="#5d5d5d"/><path d="M539.87,43.34c1.85,3.58,5.83,5.4,11.83,5.4a38.17,38.17,0,0,0,5.12-.38c7-1,13.6-1.33,19.44-1.66a22.29,22.29,0,0,0,4.91-.81,21.17,21.17,0,0,0,5-2.14C599.15,36.16,614.49,13.83,615,0h-1.21c-.53,13.27-15.79,35.44-28.23,42.71a20.33,20.33,0,0,1-4.72,2,21.09,21.09,0,0,1-4.69.76c-5.82.34-12.41.72-19.49,1.67-8.29,1.12-13.66-.37-15.72-4.38-2.8-5.44.53-15.92,8.68-27.35C554.06,9.23,560.05,4.18,568,0h-2.51a51.21,51.21,0,0,0-16.79,14.74C540.1,26.72,536.82,37.41,539.87,43.34Z" fill="#5d5d5d"/><path d="M921.46,655.88c4.46,6.42,13.89,7.14,26.94,8.14l4.37.34c4.12.34,8.44.48,13,.64,21.21.73,45.26,1.55,67,21.33l.26.23c12,10.55,19.21,29.13,25.53,45.51s11.87,30.77,20.62,30.77c.27,0,.55-.06.82-.08V762a8.21,8.21,0,0,1-.82.09c-8.25,0-13.67-14-20-30.31-6.35-16.46-13.55-35.13-25.72-45.78l-.26-.24c-21.91-19.95-46.1-20.78-67.44-21.51-4.56-.15-8.87-.3-13-.64l-4.38-.34c-12.85-1-22.13-1.69-26.4-7.83-4-5.82-3.47-16.7,1.86-35.29,4.93-17.2,6.76-32.91,5.58-48-2.39-30.84-15.28-58.55-27.75-85.35-13-28-25.32-54.4-18.88-72.54,10.71-30.21,62.4-83.54,83.81-86.45a17.79,17.79,0,0,1,2.54-.15c17.88,0,58.33,14.89,110.79,47v-.84c-52.41-32-92.86-46.89-110.79-46.89a19.46,19.46,0,0,0-2.64.15C945,330,892.94,383.63,882.18,414c-6.53,18.42,5.82,45,18.91,73.1,12.44,26.73,25.3,54.37,27.68,85.09,1.17,15-.64,30.68-5.56,47.8C917.75,639.05,917.22,649.79,921.46,655.88Z" fill="#5d5d5d"/><path d="M483.85,872.91c35.72-4.07,78.28-46.53,89.69-79,19.81-56.33-15.4-101.69-49.46-145.56-32.86-42.34-63.91-82.33-48.81-131,13.15-42.42,55.63-65.31,88.92-65.31,17.95,0,33.47,6.36,43.71,17.92,12.16,13.73,16.94,34.58,13.81,60.3C611,618.67,607.8,715.36,706.34,743.86a119.43,119.43,0,0,0,33.19,4.93c41.48,0,68-23.77,82.88-43.71,28.58-38.22,38.51-95.41,24.69-142.29-11.71-39.76-34.77-78.31-70.47-117.87-53.07-58.79-125.35-109.34-221-154.54l-4.14-2c-40.22-19-81.81-38.7-125.6-49.55-2.6-.64-5.48-1.41-8.54-2.22-13.53-3.6-30.37-8.07-44.81-8.07a44.72,44.72,0,0,0-14.89,2.21c-6.23,2.24-9.74,6.5-13.14,10.63-2.54,3.08-5.15,6.26-8.9,8.54-2.43,1.48-7.17,3.31-12.18,5.25-8.1,3.13-16.47,6.36-19.13,9.47-5.11,6-3.7,9.61-2.34,13.1,1,2.51,1.9,4.88.7,8.39l-.95,2.78c-7.27,21.39-7.27,21.39-24,26.24-3.24.94-7.27,2.1-12,3.62-13.81,4.4-19.47,11.17-24.94,17.71-4.21,5-8.2,9.79-15.69,13.64-.2,0-.42,0-.66,0-8.65,0-74.17,4.31-79.2,20.42-1.35,4.35,1.59,9.06,8.76,14,9,6.21,15.78,6.93,20.11,6.93,2.12,0,4-.19,5.87-.36,1.59-.16,3.08-.3,4.5-.3,5.27,0,10.6,1.49,17.91,19.51,1.8,4.44,3.19,8.07,4.34,11.09,5.66,14.82,5.85,15,20.24,21.17,3.57,1.52,8,3.42,13.66,6,18.52,8.55,22.32,18.25,27.12,30.53,2.54,6.49,5.42,13.85,10.87,22.12,5.83,8.86,12.68,16,19.3,22.88,11.73,12.21,22.82,23.75,26.35,43,6.11,33.38-12,65.26-32.5,94.73-9.94,14.29-30.36,30.93-52,48.54-36.71,29.91-78.32,63.81-78.47,95.21-.09,17.93,4.52,31.69,13.68,40.89,10,10,25.16,14.91,46.39,14.91,30.78,0,68.62-10.38,102-19.54,26.28-7.21,49-13.44,63.48-13.44a29.84,29.84,0,0,1,8.27,1c14,4.16,25.09,13,35.82,21.63,14.24,11.39,27.69,22.15,46.93,22.15A53.29,53.29,0,0,0,483.85,872.91Zm-88.27-45a30.91,30.91,0,0,0-8.75-1.06c-14.73,0-37.53,6.26-63.93,13.5-33.28,9.13-71,19.48-101.56,19.48-20.76,0-35.54-4.71-45.2-14.41-8.83-8.88-13.27-22.24-13.19-39.7.14-30.61,41.43-64.24,77.86-93.92,21.71-17.69,42.22-34.4,52.29-48.88,20.7-29.77,39-62,32.77-96C322.25,547.12,311,535.41,299.08,523c-6.57-6.83-13.36-13.9-19.11-22.63-5.35-8.12-8.19-15.39-10.7-21.81-4.95-12.64-8.85-22.62-28-31.44-5.67-2.62-10.12-4.52-13.7-6.05-13.87-5.92-13.87-5.92-19.33-20.22-1.15-3-2.55-6.67-4.35-11.12-7-17.2-12.42-20.56-19.47-20.56-1.5,0-3,.15-4.66.3a56.39,56.39,0,0,1-5.71.36c-4.46,0-10.66-.76-19.16-6.63-6.49-4.49-9.22-8.58-8.1-12.13,4.37-14,65.44-19.25,77.59-19.25a4.15,4.15,0,0,1,.59,0l.19-.78.37.74c8-4,12.3-9.2,16.49-14.2,5.56-6.65,10.82-12.94,24.17-17.19,4.74-1.51,8.76-2.67,12-3.61,17.44-5,17.67-5.29,25.15-27.31l1-2.78c1.4-4.09.27-7-.73-9.54-1.29-3.31-2.4-6.17,2.06-11.4,2.38-2.78,10.92-6.08,18.46-9,5.08-2,9.88-3.81,12.44-5.37,4-2.43,6.7-5.72,9.33-8.91,3.4-4.14,6.61-8,12.41-10.12a42.91,42.91,0,0,1,14.32-2.11c14.22,0,30.94,4.44,44.38,8,3.07.82,6,1.58,8.56,2.23,43.63,10.81,85.15,30.45,125.3,49.44l4.13,1.95C650.36,337,722.46,387.42,775.38,446.05c35.53,39.36,58.47,77.7,70.11,117.21,13.67,46.4,3.85,103-24.43,140.82-14.68,19.63-40.74,43-81.53,43a118,118,0,0,1-32.72-4.86c-97.28-28.13-94.07-124.06-83.43-211.78,3.18-26.21-1.74-47.52-14.23-61.61-10.56-11.93-26.53-18.49-45-18.49-33.89,0-77.14,23.3-90.53,66.49-15.35,49.52,17.41,91.73,49.1,132.54,33.77,43.51,68.7,88.5,49.19,144-11.25,32-53.15,73.86-88.29,77.86a50,50,0,0,1-5.81.34C459.2,871.58,446,861,432,849.8,421.11,841.11,409.88,832.13,395.58,827.87Z" fill="#5d5d5d"/><path d="M525.16,87.36c8.17,0,17.18-2,25.12-3.76,4.08-.91,7.92-1.76,11-2.18,5.8-.78,11.44-1.1,16.89-1.42,11.35-.65,22.08-1.27,30.59-6.11,6.86-3.9,11.86-10.33,15.29-19.65C630.21,37.49,637.81,18.66,648.6,0h-.83c-10.7,18.59-18.26,37.31-24.4,54-3.37,9.16-8.26,15.46-15,19.28-8.36,4.75-19,5.37-30.27,6-5.47.32-11.12.64-17,1.43-3.1.42-7,1.28-11,2.18-7.91,1.76-16.88,3.75-25,3.75-7.93,0-13.55-1.93-17.18-5.9-8.83-9.67-4.41-31.76-2-43.62l.37-1.88c2.7-13.67,7-25.32,13.15-35.24h-.85c-6,9.91-10.32,21.51-13,35.1L505.24,37c-2.4,12-6.86,34.3,2.21,44.25C511.22,85.35,517,87.36,525.16,87.36Z" fill="#5d5d5d"/><path d="M711,0H709.3a98.35,98.35,0,0,0-7.47,8.72c-26.46,36-38.2,69.19-35.89,101.54.9,12.58-.64,20.91-4.72,25.45-2.6,2.9-6.3,4.31-11.33,4.31-7,0-15.59-2.66-24.7-5.48-8.27-2.56-16.82-5.2-24.89-6.09a170.33,170.33,0,0,0-18.59-1c-20.34,0-39.66,3.24-60.12,6.67l-10.36,1.72-.26,0c-7.18,1.16-15.32,2.49-23.24,2.49-15,0-24.56-5-29.3-15.19-9.91-21.34-7.14-47-4.69-69.7.33-3,.65-6.08.95-9A214.15,214.15,0,0,1,463.4,0h-1.27a216.27,216.27,0,0,0-8.64,44.33c-.29,3-.62,6-.95,9-2.46,22.83-5.24,48.69,4.8,70.34,5,10.69,14.9,15.88,30.39,15.88,8,0,16.21-1.33,23.43-2.51l.26,0,10.37-1.72c20.4-3.42,39.68-6.65,59.92-6.65a167.8,167.8,0,0,1,18.46,1c8,.87,16.45,3.5,24.67,6,9.2,2.84,17.89,5.53,25,5.53,5.39,0,9.39-1.54,12.23-4.7,4.3-4.8,5.94-13.42,5-26.35-2.3-32,9.37-65,35.65-100.74A104,104,0,0,1,711,0Z" fill="#5d5d5d"/><path d="M703.15,181.93c-8.14,5.74-19.28,8.54-34.06,8.54-17.36,0-36.78-3.89-53.91-7.32-10.1-2-19.64-3.94-27.43-4.76A260.81,260.81,0,0,0,561.07,177c-23.38,0-53.36,3.17-63.44,18.26-4.38,6.57-4.56,14.81-.53,24.51,1.89,4.56,6.78,7,11.51,9.43,3.74,1.89,7.61,3.85,9.76,6.77,2.55,3.46,4,8.32,5.5,13,1.93,6.24,3.93,12.7,8.48,16.52a28.67,28.67,0,0,0,19.45,6.94c5.3,0,10.73-1.07,16-2.11s10.54-2.08,15.71-2.08a28.23,28.23,0,0,1,13.22,3c9.54,4.92,13.55,11.54,17.43,17.94,5.06,8.35,9.84,16.23,25.59,19.92,33,7.71,42,15.77,63.82,35.24,2.81,2.51,5.84,5.2,9.15,8.11,7.86,6.9,13.66,14.76,19.27,22.38,5,6.79,10.17,13.81,16.83,20.22,8.2,7.88,15.91,11.39,23.37,14.79,10,4.52,19.34,8.79,27.87,23.42l1.33,2.3c10.72,18.54,21.55,35.69,28.22,35.69a3.61,3.61,0,0,0,2.74-1.24c2.41-2.63,3.06-9.62,2-21.36-.62-6.89-5.6-13-10.4-19-5.19-6.42-10.09-12.48-9.8-19.17.35-8,5.21-12,10.35-16.16,3.76-3.06,7.65-6.22,9.92-11.13,5.47-11.77,6.8-22.32,8.08-32.52,1.78-14.19,3.47-27.6,16.18-42.77,22.73-27.14,54.63-47.65,89.81-57.74a119.2,119.2,0,0,1,33.15-5c35.94,0,61.73,19.55,89,40.25,3.1,2.34,6.22,4.7,9.37,7v-2.1q-4.21-3.15-8.35-6.29c-27.54-20.87-53.54-40.59-90.05-40.59A121.08,121.08,0,0,0,948,248.61c-35.49,10.18-67.68,30.87-90.63,58.27-13,15.55-14.74,29.2-16.56,43.64-1.26,10.07-2.57,20.49-7.93,32-2.11,4.55-5.85,7.59-9.46,10.53-5.2,4.23-10.58,8.6-11,17.39-.33,7.33,5,13.92,10.16,20.29,4.65,5.76,9.46,11.7,10,18.08,1.25,13.81-.16,18.54-1.56,20.07a1.91,1.91,0,0,1-1.5.7c-6.61,0-20.74-24.42-26.77-34.85l-1.33-2.3c-8.79-15.1-18.42-19.48-28.62-24.11-7.33-3.34-14.92-6.79-22.9-14.47-6.56-6.31-11.69-13.28-16.65-20-5.66-7.68-11.52-15.63-19.51-22.64-3.31-2.9-6.33-5.6-9.14-8.11-22-19.67-31.18-27.8-64.55-35.62C625,304,620.44,296.39,615.57,288.35c-4-6.6-8.14-13.42-18.1-18.56a29.85,29.85,0,0,0-14-3.19c-5.34,0-10.78,1.07-16,2.11s-10.5,2.08-15.64,2.08a27,27,0,0,1-18.37-6.55c-4.17-3.49-6.09-9.71-7.95-15.73-1.5-4.82-3-9.81-5.76-13.5-2.38-3.25-6.43-5.3-10.35-7.28-4.66-2.36-9.07-4.59-10.72-8.57-3.8-9.15-3.67-16.87.38-22.93,9.66-14.48,39.07-17.52,62-17.52a258.11,258.11,0,0,1,26.5,1.35c7.71.82,17.22,2.72,27.28,4.74,17.21,3.44,36.71,7.35,54.24,7.35,15.14,0,26.59-2.9,35-8.85,21-14.85,15-37.25,9.15-58.9-6.22-23.14-12.66-47.06,13.21-62.67,3.1-1.88,7.25-2.83,12.32-2.83,15.47,0,37.27,8.46,58.34,16.64,18.36,7.12,35.69,13.85,47,14.12,1.63,0,3.24,0,4.87,0h0c24.24,0,48.74-4.18,72.44-8.22s48.12-8.21,72.27-8.21a167.55,167.55,0,0,1,46.64,6.15A306.19,306.19,0,0,1,1080,94.07V92.24a305.7,305.7,0,0,0-39.19-14.43,169.31,169.31,0,0,0-47.1-6.21c-24.29,0-48.82,4.19-72.55,8.23S873.09,88,849,88c-1.65.06-3.23,0-4.85,0-11-.26-28.19-6.94-46.4-14-21.22-8.23-43.16-16.74-59-16.74-5.46,0-9.77,1-13.18,3.06-27,16.26-20.36,40.81-14,64.54C717.58,146.9,723.19,167.75,703.15,181.93Z" fill="#5d5d5d"/><path d="M499,120.63c5.13,0,11.09-.63,19.92-2.11a413,413,0,0,1,70-5.51c6.36,0,12.9.11,20,.33,2.47.08,4.62.11,6.56.11,11.73,0,18.58-1.42,23.63-4.91,6-4.17,9.61-11.48,12-24.45,5.42-29.76,17.36-56.5,37.53-84.09h-.89c-20.05,27.53-31.94,54.25-37.35,84-2.33,12.76-5.82,19.94-11.68,24-4.92,3.4-11.65,4.78-23.22,4.78-1.94,0-4.08,0-6.53-.11-7.09-.22-13.64-.33-20-.33a414.46,414.46,0,0,0-70.08,5.52c-8.79,1.47-14.71,2.1-19.8,2.1-14.47,0-24.85-4.85-28.46-28.51-3.45-22.61-.39-46.56,2.79-62.66A157.67,157.67,0,0,1,481.81,0h-.75a157.25,157.25,0,0,0-8.41,28.6c-3.19,16.16-6.26,40.19-2.79,62.91C473,112.19,481.47,120.63,499,120.63Z" fill="#5d5d5d"/><path d="M508.93,102.6h0a43.9,43.9,0,0,0,7.24-.65,432.58,432.58,0,0,1,60.68-5.6c4.94-.12,9.69,0,14.23.12,3,.08,5.92.15,8.72.15,8.63,0,17.57-.66,24.47-5.5,5.72-4,9.8-10.67,12.45-20.36A246.43,246.43,0,0,1,668.2,0h-.85A247.16,247.16,0,0,0,636,70.58c-2.61,9.51-6.59,16-12.17,20-6.74,4.72-15.55,5.37-24.06,5.37-2.79,0-5.66-.07-8.7-.15-4.55-.12-9.3-.24-14.27-.12a434.15,434.15,0,0,0-60.78,5.61c-11,1.84-19.13-.36-24.21-6.55-11.59-14.09-5.35-45.71-2-62.7A130.15,130.15,0,0,1,500.31,0h-.81a131.26,131.26,0,0,0-10.37,31.85c-3.37,17.1-9.65,48.94,2.15,63.3C495.34,100.09,501.28,102.6,508.93,102.6Z" fill="#5d5d5d"/></g></g></g></svg>