<svg xmlns="http://www.w3.org/2000/svg" xmlns:xlink="http://www.w3.org/1999/xlink" viewBox="0 0 759.86 705.76">
  <defs>
    <linearGradient id="linear-gradient" x1="384.01" y1="-5.78" x2="374.95" y2="516.91" gradientUnits="userSpaceOnUse">
      <stop offset="0.2" stop-color="#8fffab"/>
      <stop offset="0.66" stop-color="#2f4efa" stop-opacity="0.3"/>
    </linearGradient>
    <linearGradient id="linear-gradient-2" x1="377.33" y1="-23.85" x2="395.45" y2="335.68"
                    xlink:href="#linear-gradient"/>
    <linearGradient id="linear-gradient-3" x1="373.34" y1="175.5" x2="388.45" y2="586.4" gradientUnits="userSpaceOnUse">
      <stop offset="0" stop-color="#8fffab"/>
      <stop offset="0.97" stop-color="#2f4efa"/>
    </linearGradient>
  </defs>
  <g id="Layer_2" data-name="Layer 2">
    <g id="OBJECTS">
      <path
        d="M379.89,75.33a154.26,154.26,0,1,0,154.37,154.3A154.26,154.26,0,0,0,379.89,75.33Zm0,235.22a80.9,80.9,0,1,1,80.9-80.9A80.9,80.9,0,0,1,379.9,310.55Z"
        fill="url(#linear-gradient)"/>
      <path d="M379.89,54a27,27,0,1,0-27-27A27,27,0,0,0,379.89,54Z" fill="url(#linear-gradient-2)"/>
      <path d="M471.67,353.65a154.09,154.09,0,0,1-183.56.07l51-88.3c18.16-31.44,63.54-31.44,81.69,0Z"
            fill="url(#linear-gradient-3)"/>
      <text transform="translate(0 650.07)" font-size="192.71" fill="#c6c6c6" font-family="Comfortaa-Light, Comfortaa"
            font-weight="300" letter-spacing="0.01em">be
        <tspan x="255.92" y="0" letter-spacing="-0.01em">y</tspan>
        <tspan x="359.79" y="0" letter-spacing="0.01em">ond</tspan>
      </text>
    </g>
  </g>
</svg>
