<?xml version="1.0" encoding="utf-8"?>
<!-- Generator: Adobe Illustrator 26.0.2, SVG Export Plug-In . SVG Version: 6.00 Build 0)  -->
<svg version="1.1" id="Mount" xmlns="http://www.w3.org/2000/svg" xmlns:xlink="http://www.w3.org/1999/xlink" x="0px"
     y="0px"
     viewBox="0 0 900 900" style="enable-background:new 0 0 900 900;" xml:space="preserve">
<style type="text/css">
	.st0{fill:url(#Circle_00000096758044329607410200000008173314725896261816_);}
	.st1{fill:url(#Target_00000149373977061631832030000009977611994028609204_);}
	.st2{fill:url(#Mount_00000168836678707043828030000006580309977297652668_);}
	.st3{fill:#C6C6C6;}
</style>
  <linearGradient id="Circle_00000179639916239373666790000003856255807775648900_" gradientUnits="userSpaceOnUse"
                  x1="454.6392" y1="110.1687" x2="445.5692" y2="-412.5213"
                  gradientTransform="matrix(1 0 0 -1 0 206.52)">
	<stop offset="0.2" style="stop-color:#8FFFAB"/>
    <stop offset="0.66" style="stop-color:#2F4EFA;stop-opacity:0.3"/>
</linearGradient>
  <path id="Circle"
        style="fill:url(#Circle_00000179639916239373666790000003856255807775648900_);-webkit-filter: drop-shadow(0 0 80px #888);" d="M450.4,177.5
	c-85.2,0.1-154.2,69.2-154.1,154.4C296.4,417,365.5,486,450.7,486c85.1-0.1,154.1-69.1,154.1-154.2c0-85.2-69-154.3-154.2-154.3
	C450.5,177.5,450.5,177.5,450.4,177.5z M450.4,412.7c-44.7,0-80.9-36.2-80.9-80.9c0-44.7,36.2-80.9,80.9-80.9s80.9,36.2,80.9,80.9v0
	C531.3,376.5,495.1,412.7,450.4,412.7L450.4,412.7z"/>
  <linearGradient id="Target_00000043420122934173114360000004028407287815749299_" gradientUnits="userSpaceOnUse"
                  x1="447.8808" y1="128.2403" x2="466.0107" y2="-231.2897"
                  gradientTransform="matrix(1 0 0 -1 0 206.52)">
	<stop offset="0.2" style="stop-color:#8FFFAB"/>
    <stop offset="0.66" style="stop-color:#2F4EFA;stop-opacity:0.3"/>
</linearGradient>
  <path id="Target" style="fill:url(#Target_00000043420122934173114360000004028407287815749299_);" d="M450.4,156.1
	c14.9,0,27-12.1,27-27s-12.1-27-27-27s-27,12.1-27,27S435.5,156.1,450.4,156.1z"/>
  <linearGradient id="Mount_00000165936477566466321490000005854072946884957854_" gradientUnits="userSpaceOnUse"
                  x1="443.8969" y1="-71.1099" x2="458.9969" y2="-482.0099"
                  gradientTransform="matrix(1 0 0 -1 0 206.52)">
	<stop offset="0" style="stop-color:#8FFFAB"/>
    <stop offset="0.97" style="stop-color:#2F4EFA"/>
</linearGradient>
  <path id="Mount_00000132058796121980408260000015851578841284951437_"
        style="fill:url(#Mount_00000165936477566466321490000005854072946884957854_);" d="
	M542.2,455.8c-54.5,40.4-129,40.5-183.6,0.1l51-88.3c18.1-31.4,63.5-31.4,81.7,0L542.2,455.8z"/>
  <path class="st3" d="M141.7,753.3c-9.5,0.1-18.9-2.3-27.2-6.9c-8-4.5-14.6-11-19.2-18.9c-4.8-8.2-7.3-17.5-7.4-27v-93.1
	c-0.1-1.6,0.5-3.1,1.6-4.2c1.1-1,2.6-1.6,4.1-1.5c1.6-0.1,3.1,0.5,4.2,1.5c1.1,1.1,1.6,2.7,1.5,4.2v60.1c4.2-6.8,10.2-12.3,17.2-16
	c7.7-4.1,16.3-6.1,25-6c9.7-0.2,19.2,2.3,27.6,7c8,4.6,14.7,11.2,19.3,19.2c4.8,8.4,7.2,17.9,7,27.5c0.2,9.7-2.3,19.2-7,27.7
	c-4.6,8-11.2,14.7-19.3,19.3C160.9,751,151.4,753.5,141.7,753.3z M141.7,742.6c7.6,0.1,15.1-1.8,21.7-5.7c6.3-3.7,11.5-9,15.1-15.4
	c3.8-6.7,5.7-14.3,5.6-22.1c0.1-7.7-1.8-15.3-5.6-22c-3.6-6.3-8.9-11.6-15.1-15.3c-6.6-3.8-14.1-5.8-21.7-5.7
	c-7.6-0.1-15,1.9-21.6,5.7c-6.3,3.7-11.5,9-15.1,15.3c-3.7,6.7-5.6,14.3-5.5,22c-0.1,7.7,1.8,15.3,5.5,22.1
	c3.6,6.4,8.8,11.7,15.1,15.4C126.6,740.7,134.1,742.7,141.7,742.6z"/>
  <path class="st3" d="M272.1,753.1c-9.5,0.2-18.8-2.2-27.1-6.8c-7.8-4.5-14.3-11.1-18.6-19c-4.5-8.1-6.7-17.3-6.7-27.8
	c0-10.5,2.1-19.8,6.4-27.8c4-7.8,10.1-14.4,17.5-19c15.7-9.2,35.1-9.3,50.9-0.3c7.3,4.4,13.2,10.7,17.1,18.3
	c4.1,7.8,6.2,16.7,6.2,26.9c0.1,1.5-0.5,3-1.5,4c-1.1,1-2.6,1.5-4.1,1.5h-84.8v-10h87.9l-8.5,6.4c0.4-7.6-1.1-15.2-4.2-22.2
	c-2.9-6.2-7.5-11.4-13.2-15.1c-6-3.7-13-5.7-20.1-5.5c-6.9-0.1-13.7,1.8-19.6,5.5c-5.8,3.7-10.4,9-13.5,15.1
	c-3.4,7-5.1,14.6-4.9,22.4c-0.2,7.7,1.6,15.3,5.2,22.2c3.3,6.3,8.3,11.5,14.4,15.1c6.4,3.7,13.8,5.6,21.2,5.5
	c5.2,0,10.3-0.9,15.1-2.6c4.4-1.4,8.5-3.7,12-6.8c1-1,2.3-1.6,3.8-1.6c1.4-0.1,2.7,0.3,3.8,1.2c1.3,0.9,2.1,2.3,2.2,3.8
	c0,1.5-0.7,2.9-1.8,3.9c-4.7,4.1-10.2,7.2-16.1,9.2C285,751.8,278.6,753,272.1,753.1z"/>
  <path class="st3" d="M381.8,749.7c-1.4,0.7-2.9,0.9-4.4,0.6c-1.4-0.5-2.6-1.7-3.1-3.1l-42.2-92.5c-0.7-1.4-0.9-2.9-0.6-4.4
	c0.5-1.4,1.6-2.6,3.1-3.1c1.4-0.7,2.9-0.9,4.4-0.6c1.4,0.5,2.6,1.7,3.1,3.1l42.2,92.5c0.7,1.4,0.9,2.9,0.6,4.4
	C384.3,748,383.2,749.2,381.8,749.7z M361.4,797.9c-0.9,0-1.8-0.2-2.7-0.6c-3.5-1.4-4.4-3.8-2.9-7.1l64.8-140.3
	c1.5-3.2,3.9-4.2,7.1-2.9c3.5,1.4,4.5,3.8,2.9,7.2l-64.8,140.3C364.6,796.7,363.2,797.9,361.4,797.9L361.4,797.9z"/>
  <path class="st3" d="M495.9,753.3c-9.7,0.2-19.2-2.3-27.6-7c-8.1-4.6-14.8-11.2-19.4-19.3c-9.4-17.2-9.4-37.9,0-55.1
	c4.6-8,11.2-14.7,19.3-19.3c17.2-9.4,38-9.4,55.2,0c8,4.6,14.6,11.2,19.2,19.3c9.4,17.2,9.4,37.9,0,55.1c-4.6,8-11.2,14.7-19.2,19.3
	C515,751.1,505.5,753.5,495.9,753.3z M495.9,742.6c15.2,0.3,29.3-7.8,36.7-21.1c7.3-13.7,7.3-30.2,0-43.9
	c-7.4-13.3-21.5-21.4-36.7-21.1c-15.2-0.2-29.3,7.9-36.8,21.1c-7.4,13.7-7.4,30.2,0,43.9C466.6,734.7,480.7,742.8,495.9,742.6z"/>
  <path class="st3" d="M585.3,752.2c-3.1,0.1-5.7-2.3-5.8-5.4c0-0.1,0-0.3,0-0.4v-93.9c-0.1-1.6,0.5-3.1,1.6-4.2
	c1.1-1,2.6-1.6,4.2-1.5c2.9-0.3,5.5,1.9,5.8,4.8c0,0.3,0,0.6,0,0.9v93.9c0,1.5-0.5,3-1.5,4.1C588.4,751.7,586.9,752.3,585.3,752.2z
	 M670.7,752.2c-3.1,0.1-5.7-2.3-5.8-5.4c0-0.1,0-0.2,0-0.3v-51.8c0-8.5-1.6-15.5-4.9-21c-3.1-5.4-7.7-9.7-13.3-12.5
	c-5.9-2.8-12.4-4.3-19-4.1c-6.5-0.1-12.8,1.3-18.7,4c-5.2,2.4-9.7,6.1-13.1,10.9c-3.2,4.6-4.9,10-4.8,15.6h-9.6
	c0.4-7.7,2.9-15.1,7.1-21.5c4.2-6.3,9.9-11.5,16.6-15c6.9-3.7,14.7-5.6,22.5-5.5c8.7-0.1,17.2,1.8,25,5.7
	c7.3,3.7,13.4,9.5,17.4,16.6c4.2,7.3,6.4,16.2,6.4,26.9v51.8c0.1,3.1-2.3,5.7-5.4,5.8C670.9,752.2,670.8,752.2,670.7,752.2
	L670.7,752.2z"/>
  <path class="st3" d="M758.3,753.3c-9.7,0.2-19.2-2.3-27.7-7c-8-4.6-14.7-11.2-19.3-19.3c-4.8-8.4-7.2-18-7-27.7
	c-0.2-9.6,2.2-19.2,7-27.5c4.6-8,11.2-14.6,19.3-19.2c8.4-4.7,18-7.2,27.7-7c8.7-0.1,17.3,1.9,25,6c7.1,3.7,13,9.2,17.2,16v-60.2
	c-0.1-1.6,0.5-3.1,1.6-4.2c1.1-1,2.6-1.6,4.2-1.5c2.9-0.3,5.5,1.9,5.8,4.8c0,0.3,0,0.6,0,0.9v93.1c0.1,18.9-10.1,36.5-26.5,45.9
	C777.3,751.1,767.9,753.5,758.3,753.3z M758.3,742.6c15.2,0.3,29.3-7.8,36.7-21.1c3.7-6.8,5.6-14.4,5.5-22.1
	c0.1-7.7-1.8-15.3-5.5-22c-12-20.1-37.9-26.9-58.3-15.3c-6.3,3.7-11.6,9-15.2,15.3c-3.8,6.7-5.7,14.3-5.6,22
	c-0.1,7.7,1.8,15.3,5.6,22.1C729,734.7,743.1,742.8,758.3,742.6L758.3,742.6z"/>
</svg>
