<svg xmlns="http://www.w3.org/2000/svg" xmlns:xlink="http://www.w3.org/1999/xlink" viewBox="0 0 724.21 695.74">
  <defs>
    <linearGradient id="linear-gradient" x1="366.67" y1="-5.78" x2="357.6" y2="516.91" gradientUnits="userSpaceOnUse">
      <stop offset="0.2" stop-color="#8fffab"/>
      <stop offset="0.66" stop-color="#2f4efa" stop-opacity="0.3"/>
    </linearGradient>
    <linearGradient id="linear-gradient-2" x1="359.98" y1="-23.85" x2="378.11" y2="335.68"
                    xlink:href="#linear-gradient"/>
    <linearGradient id="linear-gradient-3" x1="356" y1="175.5" x2="371.1" y2="586.4" gradientUnits="userSpaceOnUse">
      <stop offset="0" stop-color="#8fffab"/>
      <stop offset="0.97" stop-color="#2f4efa"/>
    </linearGradient>
  </defs>
  <g id="Layer_2" data-name="Layer 2">
    <g id="OBJECTS">
      <path
        d="M362.55,75.33a154.26,154.26,0,1,0,154.37,154.3A154.26,154.26,0,0,0,362.55,75.33Zm0,235.22a80.9,80.9,0,1,1,80.9-80.9A80.9,80.9,0,0,1,362.56,310.55Z"
        fill="url(#linear-gradient)"/>
      <path d="M362.55,54a27,27,0,1,0-27-27A27,27,0,0,0,362.55,54Z" fill="url(#linear-gradient-2)"/>
      <path d="M454.33,353.65a154.09,154.09,0,0,1-183.56.07l51-88.3c18.15-31.44,63.54-31.44,81.69,0Z"
            fill="url(#linear-gradient-3)"/>
      <path
        d="M53.77,651.22a53.82,53.82,0,0,1-27.17-6.93A51.51,51.51,0,0,1,7.42,625.4a55.05,55.05,0,0,1-7.42-27V505.34a5.52,5.52,0,0,1,1.64-4.24,5.78,5.78,0,0,1,4.14-1.54A5.72,5.72,0,0,1,10,501.1a5.72,5.72,0,0,1,1.54,4.24v60.13a44.6,44.6,0,0,1,17.25-16,51.79,51.79,0,0,1,25-6,54.48,54.48,0,0,1,27.65,7,51.56,51.56,0,0,1,19.27,19.18,53.94,53.94,0,0,1,7,27.55,54.5,54.5,0,0,1-7,27.66,51.37,51.37,0,0,1-19.27,19.27A54.48,54.48,0,0,1,53.77,651.22Zm0-10.79a41.54,41.54,0,0,0,21.68-5.68,42,42,0,0,0,15.13-15.42,43.56,43.56,0,0,0,5.58-22.07,43.06,43.06,0,0,0-5.58-22A42.33,42.33,0,0,0,75.45,560a41.63,41.63,0,0,0-21.68-5.68A41.79,41.79,0,0,0,32.18,560a41.3,41.3,0,0,0-15.12,15.32,43.52,43.52,0,0,0-5.5,22,44,44,0,0,0,5.5,22.07,41,41,0,0,0,15.12,15.42A41.7,41.7,0,0,0,53.77,640.43Z"
        fill="#c6c6c6"/>
      <path
        d="M184.23,651a53.15,53.15,0,0,1-27.07-6.84,49,49,0,0,1-18.6-19q-6.75-12.15-6.74-27.75,0-15.81,6.36-27.85a48.5,48.5,0,0,1,17.53-19,51,51,0,0,1,50.88-.29,46.15,46.15,0,0,1,17.15,18.31q6.16,11.65,6.17,26.88a5.17,5.17,0,0,1-1.54,4,5.71,5.71,0,0,1-4.05,1.45H139.53v-10H227.4l-8.48,6.36a47.08,47.08,0,0,0-4.24-22.16A36.1,36.1,0,0,0,201.48,560a36.54,36.54,0,0,0-20.14-5.49A35.5,35.5,0,0,0,161.78,560a38.19,38.19,0,0,0-13.49,15.13,48.67,48.67,0,0,0-4.91,22.36,45.88,45.88,0,0,0,5.2,22.16A38.63,38.63,0,0,0,163,634.75a40.7,40.7,0,0,0,21.19,5.49,46.66,46.66,0,0,0,15.13-2.6,32.44,32.44,0,0,0,12-6.84,5.42,5.42,0,0,1,3.75-1.64,5.12,5.12,0,0,1,3.76,1.25,5.33,5.33,0,0,1,2.22,3.85,4.83,4.83,0,0,1-1.83,3.86,48.82,48.82,0,0,1-16.09,9.25A54.88,54.88,0,0,1,184.23,651Z"
        fill="#c6c6c6"/>
      <path
        d="M293.89,647.56a6.29,6.29,0,0,1-4.44.58,5.19,5.19,0,0,1-3.08-3.08l-42.2-92.51a6.15,6.15,0,0,1-.58-4.43,5.17,5.17,0,0,1,3.08-3.08,6.21,6.21,0,0,1,4.43-.58,5.21,5.21,0,0,1,3.09,3.08l42.2,92.51a6.21,6.21,0,0,1,.58,4.43A5.22,5.22,0,0,1,293.89,647.56Zm-20.43,48.18a7.78,7.78,0,0,1-2.7-.58q-5.2-2.11-2.89-7.13l64.75-140.29q2.31-4.82,7.13-2.89Q345,547,342.64,552L277.89,692.27C276.73,694.58,275.26,695.74,273.46,695.74Z"
        fill="#c6c6c6"/>
      <path
        d="M408,651.22a54.43,54.43,0,0,1-27.65-7A51.39,51.39,0,0,1,361,624.92a57.54,57.54,0,0,1,0-55.12,51.46,51.46,0,0,1,19.28-19.27,57.71,57.71,0,0,1,55.21,0A51.68,51.68,0,0,1,454.7,569.8a57.46,57.46,0,0,1,0,55.12,51.61,51.61,0,0,1-19.17,19.27A53.94,53.94,0,0,1,408,651.22Zm0-10.79a41,41,0,0,0,36.71-21.1,46.63,46.63,0,0,0,0-43.94A41,41,0,0,0,408,554.29a41.66,41.66,0,0,0-36.81,21.1,46,46,0,0,0,0,43.94A41.66,41.66,0,0,0,408,640.43Z"
        fill="#c6c6c6"/>
      <path
        d="M497.39,650.07a5.59,5.59,0,0,1-5.78-5.78V550.43a5.57,5.57,0,0,1,1.63-4.24,5.85,5.85,0,0,1,4.15-1.54,5.33,5.33,0,0,1,5.78,5.78v93.86a5.83,5.83,0,0,1-1.54,4.14A5.55,5.55,0,0,1,497.39,650.07Zm85.37,0a5.61,5.61,0,0,1-5.78-5.78V592.45q0-12.72-4.92-21A31.33,31.33,0,0,0,558.77,559a42.31,42.31,0,0,0-19-4.14,43,43,0,0,0-18.7,4A32.64,32.64,0,0,0,508,569.71a26.64,26.64,0,0,0-4.82,15.61h-9.64a43,43,0,0,1,7.13-21.49,45.49,45.49,0,0,1,16.58-15,46.83,46.83,0,0,1,22.55-5.5,53.86,53.86,0,0,1,25,5.69,42.11,42.11,0,0,1,17.44,16.57q6.36,10.89,6.36,26.89v51.84a5.61,5.61,0,0,1-5.78,5.78Z"
        fill="#c6c6c6"/>
      <path
        d="M670.44,651.22a54.43,54.43,0,0,1-27.65-7,51.29,51.29,0,0,1-19.27-19.27,54.4,54.4,0,0,1-7-27.66,53.84,53.84,0,0,1,7-27.55,51.49,51.49,0,0,1,19.27-19.18,54.43,54.43,0,0,1,27.65-7,51.79,51.79,0,0,1,25,6,44.64,44.64,0,0,1,17.24,16V505.34a5.55,5.55,0,0,1,1.64-4.24,5.81,5.81,0,0,1,4.15-1.54,5.33,5.33,0,0,1,5.78,5.78v93.08a52.62,52.62,0,0,1-26.5,45.87A53.69,53.69,0,0,1,670.44,651.22Zm0-10.79a41,41,0,0,0,36.71-21.1,44.12,44.12,0,0,0,5.49-22.07,43.61,43.61,0,0,0-5.49-22A43,43,0,0,0,648.86,560a42.05,42.05,0,0,0-15.23,15.32,43,43,0,0,0-5.59,22,43.47,43.47,0,0,0,5.59,22.07,41.66,41.66,0,0,0,36.81,21.1Z"
        fill="#c6c6c6"/>
    </g>
  </g>
</svg>
